<svg xmlns="http://www.w3.org/2000/svg" width="512" height="512"><path fill="rgb(19,132,242)" d="M32 80h384v40l-18.372.044c-19.997.05-39.994.117-59.99.192q-18.192.07-36.384.11-15.855.034-31.708.103-8.397.037-16.793.049-7.9.01-15.8.056-2.903.014-5.805.011c-2.639-.002-5.277.015-7.916.036l-2.326-.014c-4.439.059-7.463.513-10.906 3.413-1.11 2.664-1.127 5.226-1.134 8.092l-.013 2.442.002 2.653-.01 2.815q-.013 4.607-.013 9.213l-.01 6.404q-.009 6.712-.007 13.424c0 5.734-.014 11.469-.031 17.203a5007 5007 0 0 0-.013 13.226q0 3.172-.013 6.343c-.01 2.956-.007 5.912 0 8.868-.007.874-.012 1.747-.018 2.647.022 4.29.106 7.827 2.26 11.67 2.737 1.368 5.043 1.216 8.102 1.316l3.671.127 3.852.12 3.875.13q4.75.16 9.5.307v9l-2.216.044c-3.324.075-6.648.171-9.971.268l-3.487.069-3.369.107-3.094.08c-3.32.501-5.226 1.363-7.863 3.432-.924 2.722-1.127 5.232-1.134 8.092l-.013 2.442.002 2.653-.01 2.815q-.013 4.606-.013 9.213l-.01 6.404q-.009 6.712-.007 13.424c0 5.734-.014 11.469-.031 17.203a5007 5007 0 0 0-.013 13.226q0 3.172-.013 6.343c-.01 2.956-.007 5.912 0 8.868-.007.874-.012 1.747-.018 2.647.022 4.29.106 7.827 2.26 11.67 2.737 1.368 5.043 1.216 8.102 1.316l3.671.127 3.852.12 3.875.13q4.75.16 9.5.307v9l-2.124.06c-3.188.096-6.376.205-9.564.315-1.102.03-2.205.062-3.341.094l-3.233.117-2.967.095c-3.014.347-5.126.818-7.771 2.319-2.177 4.121-2.304 7.88-2.414 12.488l-.059 2.131a1128 1128 0 0 0-.152 6.693q-.057 2.28-.117 4.557-.142 5.565-.258 11.131-33.536.141-67.07.207c-10.381.02-20.762.049-31.142.095q-13.569.06-27.138.074c-4.791.006-9.582.018-14.373.047q-6.762.039-13.524.03-2.484 0-4.968.024c-2.258.02-4.516.015-6.774.004l-3.833.011c-3.855-.597-4.785-1.477-7.178-4.492-.497-2.523-.497-2.523-.492-5.427l-.024-3.361.035-3.69-.01-3.91c-.01-3.593.007-7.185.027-10.778.017-3.93.011-7.86.008-11.789-.002-7.632.017-15.264.042-22.895.03-8.826.032-17.652.036-26.478.02-23.307.076-46.615.128-69.922zm97 37c-1.365 2.972-2.37 6.04-3.383 9.148l-.91 2.698c-.955 2.84-1.894 5.684-2.832 8.529q-.957 2.86-1.918 5.719-2.15 6.404-4.264 12.82a399 399 0 0 1-1.864 5.448c-1.072 3.41-1.224 6.086-.829 9.638 1.48 2.563 1.48 2.563 4 4 3 .667 3 .667 6 0 4.549-3.36 5.702-7.988 7.383-13.148l.91-2.698c.955-2.84 1.894-5.684 2.832-8.529q.957-2.86 1.918-5.719c1.432-4.27 2.856-8.542 4.264-12.82a399 399 0 0 1 1.864-5.448c1.072-3.41 1.224-6.086.829-9.638-1.48-2.563-1.48-2.563-4-4-5.024-.837-6.889.095-10 4m-42.625 8-1.821 1.225a532 532 0 0 0-3.717 2.526c-1.766 1.2-3.55 2.367-5.345 3.522C69.557 135.91 69.557 135.91 65 141c-.584 2.915-.584 2.915 0 6 4.318 5.207 10.073 8.58 15.688 12.25l2.916 1.93C90.66 166.187 90.66 166.187 99 167c3.056-2.091 3.865-3.293 4.563-6.937-.74-4.027-2.384-5.72-5.563-8.063a284 284 0 0 0-8.77-5.45L87 145v-2a140 140 0 0 1 6.875-4.437c5.18-3.069 5.18-3.069 9.125-7.563.462-3.616.454-5.336-1.625-8.375-5.52-3.777-10.083-1.056-15 2.375m68.25-2.375c-2.138 3.125-2.308 4.657-1.625 8.375 3.56 4.787 8.701 7.43 13.77 10.45L169 143v2a140 140 0 0 1-6.875 4.438c-5.18 3.068-5.18 3.068-9.125 7.562-.462 3.616-.454 5.336 1.625 8.375 3.146 2.153 4.59 2.06 8.375 1.625 2.741-1.235 5.188-2.836 7.688-4.5l2.111-1.365C183.213 155.25 183.213 155.25 191 147c.501-2.873.501-2.873 0-6-4.306-5.212-10.076-8.583-15.687-12.25l-2.917-1.93c-8.387-6.242-8.387-6.242-17.771-4.195M64 192v16h48v-16zm64 0v16h16v-16zm-48 32v16h16v-16zm32 0v16h72v-16zm-40 32v16h32v-16zm48 0v16h16v-16zm32 0v16h32v-16zm-80 32v16h112v-16zm0 32v16h112v-16zm-8 32v16h48v-16zm64 0v16h16v-16z"/><path fill="rgb(19,132,242)" d="M224 255h256v81H224zm18 20c-3.248 5.606-2.335 12.434-2.316 18.72a513 513 0 0 1-.045 6.622q-.004 2.124-.002 4.248l-.01 3.87c.405 3.84 1.356 6.268 3.373 9.54 3.167 1.583 6.58 1.165 10.058 1.177l2.523.02q4.143.028 8.286.041l2.855.013q7.476.03 14.952.044c5.154.011 10.308.046 15.462.085 3.958.026 7.916.035 11.875.038q2.85.008 5.7.035c2.658.025 5.314.024 7.972.017l2.384.039c3.521-.034 5.533-.21 8.39-2.35 3.89-5.443 2.729-12.377 2.728-18.783.002-2.236.02-4.472.04-6.708q.005-2.143.005-4.285l.013-3.925c-.239-3.394-.535-5.53-2.243-8.458-4.162-3.231-7.932-3.43-13.016-3.388l-2.401-.016a877 877 0 0 0-7.833.006q-2.73-.003-5.458-.01-5.715-.005-11.429.017c-4.879.017-9.758.007-14.637-.01-3.756-.012-7.512-.008-11.267 0q-2.7.004-5.397-.008c-2.516-.008-5.03.004-7.546.02l-2.246-.018c-4.423.055-7.255.677-10.77 3.407m110-3v15h16v-15zm32 0v15h16v-15zm32 0v15h16v-15zm32 0v15h16v-15zm-96 32v15h16v-15zm32 0v15h16v-15zm32 0v15h16v-15zm32 0v15h16v-15zM224 135h256v81H224zm18 20c-3.248 5.606-2.335 12.434-2.316 18.72a513 513 0 0 1-.045 6.622q-.004 2.124-.002 4.248l-.01 3.87c.405 3.84 1.356 6.268 3.373 9.54 3.167 1.583 6.58 1.165 10.058 1.177l2.523.02q4.143.028 8.286.041l2.855.013q7.476.03 14.952.044c5.154.011 10.308.046 15.462.085 3.958.026 7.916.035 11.875.038q2.85.008 5.7.035c2.658.025 5.314.024 7.972.017l2.384.039c3.521-.034 5.533-.21 8.39-2.35 3.89-5.443 2.729-12.377 2.728-18.783.002-2.236.02-4.472.04-6.708q.005-2.143.005-4.285l.013-3.925c-.239-3.394-.535-5.53-2.243-8.458-4.162-3.231-7.932-3.43-13.016-3.388l-2.401-.016a877 877 0 0 0-7.833.006q-2.73-.003-5.458-.01-5.715-.005-11.429.017c-4.879.017-9.758.007-14.637-.01-3.756-.012-7.512-.008-11.267 0q-2.7.004-5.397-.008c-2.516-.008-5.03.004-7.546.02l-2.246-.018c-4.423.055-7.255.677-10.77 3.407m110-3v15h16v-15zm32 0v15h16v-15zm32 0v15h16v-15zm32 0v15h16v-15zm-96 32v15h16v-15zm32 0v15h16v-15zm32 0v15h16v-15zm32 0v15h16v-15zM224 376h256v80H224zm18 19c-3.337 5.493-2.334 12.489-2.316 18.72a513 513 0 0 1-.045 6.622q-.004 2.124-.002 4.248l-.01 3.87c.412 3.915 1.179 6.276 3.373 9.54 4.159 2.25 8.198 2.29 12.816 2.275l2.338.015c2.541.014 5.082.013 7.623.01l5.317.014q5.566.01 11.133.002c4.75-.006 9.498.01 14.247.034 3.66.015 7.318.016 10.977.013q2.625 0 5.252.015c2.45.013 4.9.006 7.351-.006l2.178.023c4.642-.048 7.83-.936 11.768-3.395 3.337-5.493 2.334-12.489 2.316-18.72-.003-2.207.02-4.414.045-6.622q.004-2.124.002-4.248l.01-3.87c-.412-3.915-1.179-6.276-3.373-9.54-4.159-2.25-8.198-2.29-12.816-2.275l-2.338-.015c-2.541-.014-5.082-.013-7.623-.01l-5.317-.014q-5.566-.01-11.133-.002c-4.75.006-9.498-.01-14.247-.034-3.66-.015-7.318-.016-10.977-.013q-2.625 0-5.252-.015c-2.45-.013-4.9-.006-7.351.006l-2.178-.023c-4.642.048-7.83.936-11.768 3.395m110-3v16h16v-16zm32 0v16h16v-16zm32 0v16h16v-16zm32 0v16h16v-16zm-96 32v16h16v-16zm32 0v16h16v-16zm32 0v16h16v-16zm32 0v16h16v-16zM42.353 31.497l3.986-.032 4.39.027q2.327-.006 4.654-.019c4.27-.017 8.54-.008 12.81.004 4.603.01 9.206-.005 13.809-.016a8302 8302 0 0 1 27.057-.002q10.993.013 21.985.006l3.157-.002 6.35-.004c19.857-.011 39.715.002 59.573.023q25.575.025 51.15-.003a34866 34866 0 0 1 68.826-.012q10.983.003 21.966-.012 13.379-.017 26.758.013c4.553.01 9.106.015 13.66.001q6.248-.017 12.494.016 2.265.007 4.53-.007c2.046-.012 4.093.002 6.139.019l3.45.002C412 32 412 32 416 36v28H32c0-32.497 0-32.497 10.353-32.503M48 40v16h16V40zm32 0v16h16V40zm32 0v16h16V40zM288 351h128v9H288zM288 231h128v9H288z"/><path fill="rgb(19,132,242)" d="M256 287h64v17h-64zM256 167h64v17h-64zM256 408h64v16h-64zM431 472h17v9h-17zM431 351h17v9h-17zM431 231h17v9h-17zM256 351h16v9h-16zM256 231h16v9h-16zM256 472h16v8h-16z"/></svg>