<svg xmlns="http://www.w3.org/2000/svg" width="2335" height="2335"><circle cx="1167.5" cy="1167.5" r="1167.5" fill="rgb(19,132,242)"/><path fill="#fefefe" d="m1306.563 481.75 3.453-.016c15.44-.055 30.63.644 45.984 2.266l3.768.38c30.76 3.236 61.967 8.435 91.232 18.62l5.148 1.758A1106 1106 0 0 1 1471 510l3.586 1.273c8.82 3.245 17.112 7.353 25.414 11.727l2.486 1.308c10.018 5.303 19.539 10.73 28.514 17.692a2252 2252 0 0 0 5.313 3.75c13.596 9.906 26.015 21.327 36.488 34.504a151 151 0 0 0 4.304 5.148c15.122 17.435 25.988 39.025 33.895 60.598l.757 2.052c23.81 65.42 15.999 141.475-12.427 204.126-6.172 13.1-13.423 25.405-22.33 36.822l-1.508 1.936c-7.398 9.428-15.184 18.429-23.492 27.064l-1.512 1.578c-5.877 6.104-11.89 11.83-18.547 17.094a246 246 0 0 0-6.226 5.094c-25.634 21.46-58.968 39.708-93.353 37.497-12.12-1.35-23.392-6.171-31.233-15.615-4.333-6.327-2.873-18.4-1.829-25.765 4.24-21.514 16.05-42.374 26.265-61.514 7.004-13.125 12.93-26.553 18.435-40.369l1.125-2.79c6.5-16.299 10.981-33.13 14.875-50.21l.736-3.229c5.849-26.9 5.254-55.979-.736-82.771q-.475-2.3-.945-4.602c-5.731-26.979-16.483-52.73-35.055-73.398l-2.187-2.473c-11.385-12.134-25.703-20.83-40.813-27.527l-1.897-.85c-9.485-4.192-19-6.896-29.103-9.15l-2.166-.513c-70.381-16.404-147.707 12.176-207.067 48.78-18.435 11.55-36.435 23.955-52.872 38.237-2.688 2.318-5.43 4.537-8.207 6.746-11.772 9.623-22.492 20.464-33.25 31.188l-2.812 2.797c-5.083 5.095-9.963 10.284-14.626 15.765l-2.922 3.352c-6.95 8.023-13.645 16.204-20.078 24.648l-1.6 2.096c-18.129 23.853-33.92 49.375-48.2 75.696a720 720 0 0 1-2.377 4.338c-23.297 42.199-40.015 88.498-53.217 134.753a766 766 0 0 1-1.86 6.363c-3.598 12.355-6.293 24.897-9.023 37.466a968 968 0 0 1-2.669 11.697c-2.095 9.018-3.986 18.063-5.741 27.154l-.614 3.17c-1.21 6.367-2.26 12.747-3.223 19.156a439 439 0 0 1-1.37 8.373c-3.499 20.472-5.968 41.084-8.106 61.738l-.263 2.539c-4.831 47.501-4.858 96.894-.737 144.461l.292 3.558c1.64 19.303 4.79 38.368 8.035 57.454.763 4.491 1.482 8.99 2.192 13.49.657 3.414 1.713 6.657 2.767 9.965.756 2.682 1.217 5.306 1.636 8.06 1.034 6.407 2.367 12.714 3.828 19.035l.789 3.417c2.164 9.167 4.813 18.098 7.801 27.025.959 2.9 1.84 5.822 2.722 8.746 6.606 22.164 6.606 22.164 15.946 43.266 1.301 2.602 2.348 5.283 3.43 7.984 1.771 4.323 3.75 8.14 6.32 12.027 1.36 2.162 2.491 4.368 3.617 6.66 9.796 19.832 22.031 37.886 35.625 55.313l2.219 2.867c11.7 14.713 25.027 28.495 39.781 40.133l1.9 1.51c9.966 7.89 20.142 15.051 31.1 21.49.653.386 1.306.773 1.98 1.17A379 379 0 0 0 1053 1640l1.873 1.006c29.54 15.613 64.465 23.404 97.298 27.624 2.067.27 4.131.568 6.192.881 3.808.512 7.6.82 11.434 1.036l2.225.126c63.683 3.368 124.71-9.427 181.978-37.673l3.027-1.493c34.614-17.233 66.45-39.628 95.973-64.507l3.598-3.008c16.037-13.437 31.465-27.49 44.402-43.992q1.481-1.785 2.973-3.562c7.26-8.695 13.797-17.709 20.105-27.114a228 228 0 0 1 6.985-9.824c5.776-7.855 10.795-16.224 15.937-24.5q1.53-2.455 3.063-4.91c9.756-15.676 19.302-31.481 28.866-47.275 7.469-12.33 14.985-24.626 22.762-36.766a867 867 0 0 0 3.657-5.787l2.09-3.262 1.746-2.75c2.573-3.188 5.106-4.905 9.14-5.719 8.239-.109 14.63 2.606 20.784 8.06 2.864 2.918 3.594 5.22 3.648 9.397l-.065 2.242v2.376c-.01 2.529-.067 5.054-.129 7.582l-.067 5.22c-.18 10.654-.693 21.097-3.037 31.523-.496 2.24-.92 4.488-1.337 6.745a217 217 0 0 1-6.121 24.449l-.718 2.295c-1.469 4.517-3.209 8.83-5.18 13.15a414 414 0 0 0-3.547 8.11c-5.647 13.094-11.606 25.865-18.555 38.32l-1.117 2.023c-14.838 26.708-33.075 51.786-52.507 75.3-1.842 2.245-3.64 4.522-5.438 6.802-7.865 9.843-16.188 19.28-24.786 28.487a911 911 0 0 0-7.17 7.794c-6.89 7.536-14.034 14.8-21.265 22.008q-2.973 2.966-5.936 5.941c-11.152 11.159-11.152 11.159-17.094 16.203-2.928 2.503-5.698 5.175-8.5 7.817-5.864 5.475-11.867 10.675-18.187 15.625l-1.886 1.484c-9.745 7.643-19.657 14.879-30.114 21.516l-2.048 1.303c-44.239 27.968-93.634 48.9-144.578 61.121-2.69.653-5.37 1.339-8.05 2.025-22.16 5.597-44.5 9.283-67.199 11.801l-2.266.252A860 860 0 0 1 1171 1797l-3.529.326c-11 .87-22.003.826-33.031.804-3.302-.005-6.603 0-9.905.007-18.28.009-35.938-.961-54.035-3.556-2.732-.391-5.465-.769-8.2-1.145-17.459-2.44-34.79-5.505-51.862-9.936l-1.914-.495C983.045 1776.362 958.03 1767.76 934 1757l-2.145-.947C908.372 1745.65 886.118 1732.581 865 1718l-1.723-1.177c-13.034-8.93-25.284-18.964-36.906-29.663a179 179 0 0 0-4.04-3.591c-5.516-4.732-10.702-9.754-15.84-14.892a1036 1036 0 0 0-4.27-4.232c-5.382-5.37-10.36-10.888-15.102-16.829-2.013-2.485-4.099-4.867-6.244-7.237-3.868-4.31-7.412-8.802-10.875-13.441l-1.916-2.56c-12.085-16.334-23.738-33.463-33.584-51.253l-1.142-2.045a1027 1027 0 0 1-8.8-16.19 316 316 0 0 0-4.245-7.578c-2.088-3.729-3.629-7.537-5.153-11.523-1.37-3.294-2.968-6.428-4.597-9.601-3.357-6.558-6.055-13.266-8.563-20.188-1.32-3.633-2.653-7.225-4.234-10.754-3.386-7.563-6.21-15.2-8.828-23.059-.317-.946-.633-1.893-.958-2.869-4.738-14.429-8.807-29.023-12.48-43.755l-.585-2.335a557 557 0 0 1-7.942-37.123c-.746-4.126-1.816-8.073-2.973-12.105q-.568-3.616-1-7.25c-.503-4.185-1.094-8.287-1.906-12.422-1.498-8.098-2.357-16.28-3.271-24.461-.313-2.779-.64-5.555-.968-8.332-3.446-30.056-4.238-60.17-4.173-90.396q.008-3.936.01-7.873c.032-25.758.52-51.368 3.087-77.018.22-2.24.426-4.482.627-6.724 8.39-92.97 32.743-185.528 80.594-284.524l.91-1.84c8.905-17.957 18.644-35.221 29.26-52.222a668 668 0 0 0 4.564-7.438c16.904-27.8 36.745-54.198 57.904-78.9a510 510 0 0 0 4.007-4.776c5.512-6.623 11.224-13.01 17.145-19.273a448 448 0 0 0 9.417-10.278c4.782-5.33 9.787-10.419 14.86-15.47q2.25-2.245 4.494-4.5c4.742-4.746 9.536-9.379 14.636-13.745 2.956-2.554 5.774-5.253 8.615-7.933a263 263 0 0 1 15.352-13.32c2.687-2.184 5.31-4.424 7.924-6.692a373 373 0 0 1 19.96-16.129 743 743 0 0 0 6.698-5.172C970.381 583.64 988.794 571.352 1008 560l2.435-1.444c30.967-18.278 63.639-32.7 97.565-44.556l3.26-1.143c43.739-15.149 89.7-24.441 135.74-28.857l3.667-.355c18.61-1.697 37.22-1.846 55.896-1.895"/><path fill="#42d0d9" d="m479 383 2 1a199 199 0 0 1-12.622 11.92c-9.701 8.484-18.89 17.443-27.991 26.56l-3.8 3.797q-3.946 3.944-7.888 7.894-5.026 5.032-10.059 10.055-3.91 3.906-7.817 7.817l-3.708 3.706C400.859 461.995 394.712 468.245 389 475a1251 1251 0 0 1-4.375 4.813c-3.855 4.27-7.5 8.675-11.117 13.148-2.896 3.51-5.885 6.93-8.883 10.351-5.164 5.913-10.085 11.97-14.89 18.176-2.315 2.988-4.68 5.929-7.06 8.863C335.131 539.67 328.023 549.287 321 559l-1.417 1.955c-5.617 7.771-11.023 15.68-16.376 23.635l-1.567 2.326a3840 3840 0 0 0-7.896 11.77l-2.94 4.376-1.377 2.075c-3.2 4.75-3.2 4.75-5.427 5.863 1.507-4.31 3.769-7.896 6.332-11.637l1.297-1.916q2.086-3.071 4.183-6.135l2.891-4.245c6.434-9.429 12.965-18.777 19.745-27.962 1.696-2.3 3.38-4.608 5.064-6.918 11.887-16.267 24.345-31.996 37.398-47.345a585 585 0 0 0 8.715-10.53c3.626-4.454 7.4-8.741 11.266-12.988a355 355 0 0 0 5.484-6.199c4.274-4.898 8.67-9.683 13.084-14.455 1.504-1.63 3-3.269 4.494-4.908 9.065-9.866 18.52-19.344 27.985-28.824l2.065-2.074c13.16-13.198 13.16-13.198 19.245-18.362 3.36-2.88 6.54-5.96 9.752-9.002a466 466 0 0 1 16-14.5"/><path fill="#46c1da" d="m1099 655 2 1c-4.672 4.234-9.401 8.358-14.312 12.313-13.525 11.025-25.644 23.521-37.938 35.875l-5.473 5.486q-6.642 6.66-13.277 13.326l-2-1a1059 1059 0 0 1 28-29.125l1.478-1.485c5.664-5.688 11.4-11.197 17.522-16.39l3.492-3.027c6.73-5.8 13.514-11.494 20.508-16.973"/><path fill="#cff0f5" d="m901 640 2 1-48 48-2-1c8.099-8.86 16.395-17.502 24.875-26l2.663-2.677c4.461-4.45 8.978-8.767 13.775-12.856 2.352-2.045 4.518-4.23 6.687-6.467"/><path fill="#23c9d2" d="m432 427 3 1-25 25-1-3z"/><path fill="#33bad6" d="m1049 700 3 1-22 22-2-1q3.842-4.096 7.688-8.187c.72-.77 1.442-1.538 2.185-2.33 3.654-3.888 7.325-7.74 11.127-11.483"/></svg>
