<svg xmlns="http://www.w3.org/2000/svg" width="512" height="512"><path fill="rgb(19,132,242)" d="M32 0h448c0 6.523-.01 12.753-.606 19.197l-.199 2.28c-.218 2.495-.444 4.989-.669 7.483l-.48 5.451q-.66 7.46-1.329 14.918-.718 8.056-1.429 16.113-1.397 15.77-2.804 31.538a79369 79369 0 0 0-3.265 36.737q-2.907 32.777-5.827 65.552a254779 254779 0 0 0-5.654 63.593l-.351 3.956-1.398 15.746a514102 514102 0 0 1-13.618 153.19c-.748 8.42-1.505 16.837-2.371 25.246-6.955 2.775-14.045 4.776-21.262 6.754l-4.047 1.12q-4.38 1.21-8.761 2.417c-7.162 1.971-14.321 3.955-21.48 5.937l-7.762 2.147c-21.384 5.917-42.75 11.896-64.116 17.873l-12.49 3.493-14.586 4.08c-.9.25-1.798.502-2.725.761l-7.582 2.122-2.216.62-2.085.583-1.993.55c-1.815.52-3.612 1.102-5.407 1.687-7.024 1.724-12.784.825-19.569-1.15l-2.338-.653c-2.564-.718-5.123-1.452-7.683-2.185l-5.52-1.553a5233 5233 0 0 1-14.905-4.223c-5.183-1.472-10.37-2.934-15.556-4.395q-9.65-2.72-19.3-5.449a9960 9960 0 0 0-44.875-12.571l-6.046-1.68q-11.583-3.221-23.169-6.434-6.706-1.86-13.408-3.728-2.458-.684-4.918-1.364-3.335-.924-6.669-1.855l-3.773-1.048C73 462 73 462 72 461c-.28-2.103-.494-4.216-.685-6.33l-.19-2.058q-.318-3.5-.627-7.003-.232-2.572-.467-5.145-.66-7.283-1.308-14.568-.574-6.41-1.153-12.817a46016 46016 0 0 1-4.163-46.507l-1.046-11.742a183093 183093 0 0 1-13.285-149.658l-.265-3.003q-2.163-24.447-4.334-48.893-2.258-25.418-4.503-50.837-1.25-14.15-2.508-28.298-1.062-11.934-2.113-23.87-.534-6.068-1.075-12.133-.498-5.555-.982-11.111-.26-2.941-.527-5.882l-.31-3.586-.27-3.056C31.928 9.675 32 4.835 32 0m83 95c0 7.103.105 13.992.656 21.043l.202 2.71q.317 4.218.642 8.435l.434 5.775q.526 7.02 1.066 14.037 40.617.035 81.233.052 18.858.007 37.718.023 16.44.015 32.88.02 8.703 0 17.406.01 8.198.011 16.394.008 3.003 0 6.005.006 4.114.006 8.227.001l2.376.01c5.634-.016 11.165-.487 16.761-1.13l-.168 2.138q-.775 9.848-1.541 19.694-.29 3.712-.582 7.423-.42 5.343-.834 10.686l-.265 3.338-.243 3.153-.215 2.752c-.177 3.276-.176 6.536-.152 9.816l-3.476-.016c-29.32-.12-58.63.079-87.946.453l-2.596.034q-15.825.203-31.652.42-13.674.184-27.348.363-27.99.366-55.982.746l.47 6.684.266 3.76c.327 4.408.74 8.804 1.201 13.2l.258 2.49.534 5.103q.411 3.924.81 7.85l.523 4.995.24 2.37c.095 3.577.095 3.577 1.698 6.548 2.406.1 4.784.134 7.19.127l2.308.005c2.571.004 5.143 0 7.715-.003l5.508.006q7.508.005 15.014 0c5.235-.003 10.47 0 15.705 0q13.205.003 26.408-.005 15.248-.007 30.495.002 13.089.007 26.179.003 7.817-.003 15.634.001 7.365.004 14.728-.005 2.696 0 5.39.002c8.632.01 17.148-.037 25.726-1.133l-.304 2.68q-1.42 12.533-2.825 25.068-.723 6.444-1.453 12.887-.705 6.224-1.4 12.449-.267 2.369-.536 4.736-.38 3.33-.748 6.662l-.43 3.823c-.323 3.93-.355 7.753-.304 11.695l-1.763.322c-6.879 1.309-13.57 3.072-20.307 4.971q-3.45.956-6.903 1.908c-3.587.994-7.173 1.992-10.756 3.003-3.485.98-6.975 1.942-10.466 2.901l-3.227.925c-5.815 1.58-10.64 2.44-16.578.97l-2.783-.683c-3.32-.858-6.622-1.77-9.924-2.696l-3.644-1.005a4383 4383 0 0 1-9.52-2.638q-6.726-1.873-13.457-3.73-3.578-.988-7.152-1.987l-3.258-.9-2.867-.798c-2.472-.677-2.472-.677-5.395-.563l.09-3.945c-.001-6.93-.667-13.797-1.317-20.689q-.316-3.385-.619-6.772c-.675-7.859-.675-7.859-2.154-15.594h-56l8 90 43.375 12.063c13.521 3.761 13.521 3.761 19.068 5.308 3.746 1.042 7.496 2.065 11.248 3.08 16.054 4.355 16.054 4.355 23.779 7.23 18.551 6.694 33.565 1.92 51.649-3.772a546 546 0 0 1 9.02-2.7c5.313-1.554 10.624-3.112 15.92-4.725 12.496-3.805 25.056-7.357 37.644-10.846l5.952-1.655Q364.827 383.989 372 382a430421 430421 0 0 0 10.681-118.762l.227-2.522q1.816-20.213 3.637-40.422 1.869-20.74 3.73-41.481 1.147-12.797 2.302-25.593.792-8.776 1.577-17.553.453-5.063.912-10.126.496-5.493.985-10.987l.295-3.22.264-2.992.23-2.56c.206-3.588.16-7.187.16-10.782z"/></svg>