<svg xmlns="http://www.w3.org/2000/svg" width="512" height="512"><path fill="rgb(19,132,242)" d="m319.184 205.797 2.458-.017q2.576-.014 5.152-.02c2.63-.01 5.258-.041 7.888-.072q2.5-.01 5.002-.016l2.386-.038c5.412.023 5.412.023 7.836 1.629 1.207 1.916 2.102 3.747 2.918 5.862l.928 2.39.935 2.485.971 2.484C358 226.596 358 226.596 358 230l3.547.332c4.195.529 7.782 1.739 11.703 3.356l1.952.786c4.244 1.748 8.173 3.828 12.173 6.089 3.821 1.948 6.03 2.934 10.188 1.625A77 77 0 0 0 402 240a441 441 0 0 1 5.625-2.75l2.602-1.36c3.708-1.19 5.985-.78 9.773.11 2.89 2.146 2.89 2.146 5.68 4.953l1.51 1.507a325 325 0 0 1 3.11 3.167 357 357 0 0 0 4.778 4.807c8.749 8.844 8.749 8.844 8.922 13.566-.637 2.232-.637 2.232-1.687 4.469-.37.818-.738 1.637-1.118 2.48l-2.39 5.102-1.118 2.48-1.05 2.237c-1.14 3.997.222 7.32 2.035 10.912l1.003 2.043 2.205 4.404c1.781 3.656 3.283 7.035 4.058 11.041.888 4.26 1.658 7.183 4.062 10.832 5.438 3.527 11.708 5.408 17.903 7.163 2.526 1.008 3.597 1.541 5.097 3.837.31 2.752.444 5.274.434 8.027l.015 2.38q.01 2.49-.003 4.98c-.008 2.538.02 5.074.052 7.611q.003 2.421-.002 4.842l.034 2.295c-.045 3.425-.234 5.464-2.295 8.255-2.152 1.55-4.018 2.596-6.493 3.532l-2.394.918-2.473.91-2.496.957C451.314 378 451.314 378 449 378l-.41 2.063c-2.262 10.186-6.17 19.983-11.371 29.039-1.734 4.122-1.107 6.707.548 10.79 1.238 2.785 2.548 5.533 3.881 8.274l.954 2.057.885 1.836c.728 2.753.447 4.238-.487 6.941a67 67 0 0 1-5.102 5.738l-1.56 1.593a498 498 0 0 1-3.283 3.3 383 383 0 0 0-4.957 5.082 1331 1331 0 0 1-3.2 3.213l-1.471 1.543c-2.712 2.642-4.252 3.51-8.049 3.977-3.131-.413-4.747-.813-7.331-2.512-7.727-4.779-7.727-4.779-16.476-5.51-4.263 1.546-8.054 3.741-11.946 6.045-3.753 2.22-6.926 3.145-11.19 3.854-3.607.639-6.558 1.317-9.435 3.677-3.992 6.061-6.209 13.047-8.314 19.946C350 491 350 491 349 492a234 234 0 0 1-8.629.098l-2.619-.005c-2.771-.005-5.543-.018-8.315-.03q-2.81-.009-5.623-.014-6.907-.017-13.814-.049c-5.351-10.447-5.351-10.447-7.312-16l-.989-2.75C301 471 301 471 301 469l-2.062-.41c-7.814-1.735-14.824-4.486-22.079-7.774l-1.928-.863C273 459 273 459 271.055 457.754c-3.862-2.384-3.862-2.384-8.26-2.32-2.381.972-4.6 2.083-6.858 3.316a323 323 0 0 1-4.597 2.36l-2.02 1.092c-3.347 1.151-5.8 1.222-9.32.798-2.309-1.632-3.977-3.037-5.898-5.04l-1.577-1.57a304 304 0 0 1-3.252-3.314 327 327 0 0 0-4.996-5.017 1246 1246 0 0 1-3.175-3.223l-1.51-1.497c-3.158-3.312-4.472-5.744-4.592-10.339.637-2.254.637-2.254 1.688-4.348l1.117-2.334 1.195-2.38c2.97-5.54 2.97-5.54 3.953-11.598-1.228-3.015-2.664-5.845-4.203-8.715C214.8 396.034 210 386.652 210 378l-3.687-1.187a459 459 0 0 1-12.25-4.313l-3.34-1.219C188 370 188 370 186 367c-.208-2.722-.304-5.34-.3-8.062l-.014-2.387a825 825 0 0 1-.002-4.993c.003-2.549-.02-5.096-.045-7.644q-.004-2.426-.002-4.851l-.028-2.311c.046-5.22.046-5.22 1.635-7.668 2.05-1.266 3.88-1.885 6.213-2.494 9.498-2.532 9.498-2.532 16.937-8.465 2.05-4.383 2.938-9.045 3.956-13.751 1.294-4.726 3.805-8.915 6.202-13.16 1.426-2.632 2.46-4.635 2.397-7.667-1.607-4.312-3.576-8.445-5.597-12.576l-.954-2.06-.885-1.84c-.76-3.068-.397-5.035.487-8.071 1.66-2.155 3.22-3.945 5.137-5.836l1.567-1.588q1.637-1.65 3.296-3.283a373 373 0 0 0 4.99-5.055q1.602-1.602 3.21-3.199l1.487-1.534c2.465-2.384 3.973-3.458 7.406-3.934 2.787.411 4.724.98 7.22 2.25.765.37 1.53.74 2.32 1.12q2.372 1.187 4.734 2.391c4.689 2.293 4.689 2.293 9.797 2.117L270 241l3.086-1.55q2.551-1.365 5.094-2.74c3.322-1.718 6.269-2.908 9.972-3.507 6.34-1.065 6.34-1.065 11.848-4.203 3.981-6.044 6.139-13.057 8.2-19.946 1.761-4.524 6.838-3.235 10.984-3.257M303 273l-3.195 1.063c-20.23 7.605-34.814 23.346-44.055 42.437-8.758 19.664-9.101 41.086-1.8 61.276 7.721 20.008 22.37 35.24 41.488 44.599 20.81 8.926 41.96 9.707 63.125 2.04 21.628-8.898 37.173-25.323 46.41-46.657 2.71-7.277 4.55-14.995 5.027-22.758l.16-2.594c.639-20.65-6.558-41.327-20.473-56.656-14.292-15.194-33.51-26.108-54.695-27.086-11.276-.197-21.282.774-31.992 4.336M39 84l2.275 1.247 2.992 1.636 2.962 1.622C75.71 103.875 109.16 108.99 141 112l2.991.29c11.753.993 23.534.954 35.321.96l3.42.002C228.577 113.209 277.395 109.034 318 86q1.995-1.009 4-2 .141 14.512.207 29.025c.021 4.493.05 8.986.095 13.479q.063 6.507.078 13.013.01 2.48.043 4.959c.03 2.32.033 4.638.031 6.958l.027 3.997c-.769 5.706-3.862 9.501-8.293 13.006-30.671 22.642-79.75 26.561-116.438 26.801l-3.758.03q-5.997.036-11.992.044l-2.062.004C137.49 195.378 78.324 195.102 44 166c-4.628-4.966-5.125-8.455-5.114-15.134v-2.188c0-2.386.009-4.772.016-7.158l.005-4.965q.006-6.532.024-13.065.014-6.666.02-13.332Q38.967 97.078 39 84m24.125 44.625c-3.165 5.026-4.53 9.815-3.852 15.773C60.938 150.731 64.776 154.273 70 158c4.262 2.131 9.384 1.578 14 1 5.443-2.1 8.989-5.2 11.563-10.437 2.047-5.643 2.273-10.156-.188-15.688-2.631-4.797-5.95-7.534-10.75-10.187-8.742-2.29-14.992-.005-21.5 5.937"/><path fill="rgb(19,132,242)" d="M176.053 19.684c3.914.003 7.827-.02 11.74-.045 40.642-.102 98.42 2.107 130.648 30.65 2.254 2.474 3.472 4.488 3.711 7.86C321.62 63.667 320.36 67.36 316 71c-35.319 26.857-92.07 28.227-134.375 28.25l-3.425.002C73.153 99.152 73.153 99.152 43 69c-2.76-3.452-4.369-6.507-4.125-11 1.274-6.193 4.901-9.46 9.969-12.969C72.704 30.536 101.664 25.296 129 22l2.127-.264c14.966-1.81 29.862-2.077 44.926-2.052M39 181c3.49.753 6.223 2.167 9.327 3.933 64.144 36.238 163.094 31.431 232.103 12.883 13.212-3.695 25.589-8.208 37.277-15.496C320 181 320 181 322 181v10l-2.562.078c-8.73.437-14.853 1.219-21.043 7.613-2.655 3.273-3.268 6.458-4.207 10.559-1.321 4.262-2.952 6.925-6.709 9.432-18.297 9.5-18.297 9.5-27.479 7.318a130 130 0 0 1-5.812-2.562c-6.174-2.611-10.914-3.906-17.385-1.683-7.334 3.372-12.619 8.356-18.164 14.064a410 410 0 0 1-4.6 4.634c-6.78 6.822-12.58 12.756-13.281 22.727.486 5.657 3.022 10.659 5.242 15.82 2.116 5.527 2.116 5.527 1.188 9.313C205 291 205 291 201.25 291.656c-46.267 3.828-119.015 2.848-156.375-28.719-4.096-3.668-5.72-6.773-6.116-12.31l.014-3.896v-2.16c0-2.343.016-4.685.032-7.028l.008-4.889c.008-4.279.028-8.558.05-12.837.02-4.37.03-8.741.04-13.112Q38.934 193.852 39 181m22.25 48.313c-2.374 5.104-2.885 9.575-1.125 14.875 2.578 5.906 6.94 9.48 12.7 12.148 5.167 1.577 10.18.407 14.925-1.961 4.53-2.95 7.51-6.531 8.883-11.805.992-6.942-.647-11.286-4.258-17.257-3.878-3.777-8.611-5.841-13.937-6.75-7.788 1.397-12.37 4.383-17.188 10.75"/><path fill="rgb(19,132,242)" d="M39 277c4.981 1.944 9.682 4.337 14.414 6.814 10.48 5.353 21.429 8.96 32.836 11.748l3.658.902c18.806 4.508 37.825 7.08 57.092 8.536l3.887.305c15.674 1.063 31.411 1.277 47.113 1.695v2l-1.557.623c-2.365.96-4.716 1.95-7.068 2.94l-2.45.978c-6.546 2.794-10.735 6.282-14.06 12.625-1.198 3.927-1.21 7.634-1.236 11.72-.01.858-.018 1.715-.027 2.598a913 913 0 0 0-.028 5.434 583 583 0 0 1-.111 8.228C171.177 367.4 171.177 367.4 177 379c2.53 2.103 5.02 3.616 8 5l2.07.96c1.627.719 3.277 1.386 4.93 2.04v1c-114.203 1.385-114.203 1.385-148.52-30.262-3.96-4.649-4.852-7.978-4.82-14.099l-.002-2.189c.002-2.376.025-4.75.049-7.126q.009-2.478.013-4.956c.011-4.338.04-8.676.074-13.015.03-4.43.044-8.862.06-13.292q.05-13.03.146-26.061m23.047 48.172c-2.465 4.304-3.536 9.175-2.633 14.074 1.99 5.783 4.946 10.04 10.336 13.067 4.95 2.245 9.162 2.707 14.355.992 5.822-2.6 9.174-6.11 12.207-11.743 1.61-5.996.827-10.917-1.87-16.406-2.7-4.039-5.938-6.388-10.442-8.156-9.426-1.56-15.959.465-21.953 8.172M307 316c2.93 2.362 3.012 4.07 3.625 7.813-.16 3.478-1.025 5.137-3.437 7.625A138 138 0 0 1 303 335l-2.738 2.297A585 585 0 0 1 292 344l-2.836 2.27L287 348c1.602 4.493 5.13 6.935 8.688 9.875q2.73 2.292 5.457 4.587 1.901 1.575 3.847 3.095c4.793 3.84 4.793 3.84 5.867 6.857-.199 4.025-.34 5.96-2.984 9.149-3.507 1.753-5.005 2.196-8.875 1.437-2.957-1.648-5.432-3.807-8-6l-1.55-1.317a1017 1017 0 0 1-7.08-6.07c-4.617-4.002-9.341-7.826-14.163-11.578-2.366-2.182-3.787-4.153-5.207-7.035 0-3.946.529-5.497 3.242-8.39 7.214-6.826 14.575-13.396 22.309-19.63A248 248 0 0 0 294.5 318c4.296-3.437 7.267-3.215 12.5-2M359.773 315.074c3.891 1.618 6.596 4.497 9.594 7.395 2.594 2.493 5.274 4.768 8.07 7.031l2.739 2.223q2.963 2.388 5.93 4.773l3.019 2.442 2.758 2.214c3.051 2.663 3.089 3.503 3.43 7.66.171 3.065-.255 4.104-2.028 6.696-2.255 2.46-4.541 4.49-7.16 6.555-5.17 4.136-10.199 8.41-15.177 12.775-9.052 7.852-9.052 7.852-14.01 8.662-3.76-.64-5.36-1.7-7.938-4.5-1-2.937-1-2.937-1-6 1.934-3.85 4.277-6.425 7.5-9.25l2.648-2.324c4.56-3.88 9.186-7.674 13.852-11.426-1.255-3.765-2.831-4.694-5.937-7.125-3.945-3.157-7.836-6.345-11.625-9.687l-2.442-2.145c-1.935-1.98-3.033-3.464-3.996-6.043.08-3.82.582-5.505 3.063-8.437 3.126-1.663 5.202-2.14 8.71-1.489M320 305.438c3.985.747 5.203 1.558 8 4.562 1.613 3.954 2.593 8.05 3.625 12.188q.75 2.874 1.504 5.75.543 2.082 1.08 4.168c1.52 5.914 3.127 11.801 4.752 17.687l2.284 8.33q.752 2.74 1.51 5.478 1.072 3.88 2.12 7.766l.652 2.33c1.21 4.524 1.866 8.577 1.473 13.303-2.062 2.938-2.062 2.938-5 5-3.562.563-3.562.563-7 0-3.61-2.879-4.79-5.53-6.02-9.923l-1.002-3.503L327 375l-.924-3.265c-.934-3.32-1.845-6.645-2.748-9.973l-.992-3.654a7044 7044 0 0 1-2.046-7.575q-1.043-3.861-2.101-7.718a2706 2706 0 0 1-3.048-11.24l-.957-3.464c-1.56-5.857-2.771-11.044-2.184-17.111 2.441-3.447 3.83-4.78 8-5.562"/></svg>