<svg xmlns="http://www.w3.org/2000/svg" width="230" height="234"><path fill="#00000007" d="M0 0h230v234H0z"/><path fill="rgb(19,132,242)" d="m93.934 17.566 4.934-.015q5.152-.014 10.305.003c4.379.011 8.757-.009 13.136-.038 3.393-.018 6.786-.018 10.179-.012q2.42 0 4.84-.019c11.994-.08 21.806.945 30.914 9.519 6.346 7.205 8.14 14.673 8.04 24.086-.702 7.26-4.195 14.656-9.282 19.91-7.057 5.659-13.516 8.303-22.623 8.29l-2.24.02c-2.428.02-4.857.024-7.285.026l-5.096.02q-5.333.017-10.667.015c-4.542 0-9.083.027-13.624.061-3.507.022-7.014.026-10.522.025q-2.51.005-5.02.027C73.828 79.62 73.828 79.62 67 75l-2.137-1.422c-6.456-5.53-11.301-12.596-12.27-21.18-.407-10.5 1.306-17.667 8.493-25.742 9.608-9.304 20.277-9.12 32.848-9.09"/><path fill="rgb(19,132,242)" d="m87.89 83.867 2.259-.003q2.35 0 4.7.006 3.61.005 7.221-.007 2.286 0 4.57.004l2.191-.006c5.054.024 5.054.024 6.169 1.139.094 1.902.117 3.808.114 5.713v3.7l-.016 4.028-.005 4.099q-.006 5.403-.024 10.806-.014 5.51-.02 11.02-.016 10.816-.049 21.634-8.298.185-16.595.275-2.82.037-5.636.102c-19.811.447-19.811.447-26.769-5.377l-3.25-2.312c-5.943-5.809-9.906-12.85-10.233-21.258-.082-9.77 1.844-16.388 8.64-23.774 8.06-7.619 15.757-9.82 26.734-9.789"/><path fill="rgb(19,132,242)" d="m86.387 150.902 2.476.005c2.608.005 5.216.018 7.825.03q2.652.008 5.306.014 6.502.017 13.006.049.149 7.415.22 14.832.03 2.516.082 5.033c.265 13.102-.748 22.684-9.372 33.158-4.835 4.953-11.205 8.586-18.13 9.313-10.347.116-18.529-1.418-26.269-8.629-7.176-8-9.195-16.166-8.906-26.684.52-7.955 4.597-14.149 10.34-19.488 7.282-5.493 14.424-7.691 23.422-7.633"/><path fill="rgb(19,132,242)" d="M167.188 89.25c6.397 4.265 10.395 10.5 12.812 17.75.883 11.11.283 19.107-6.691 28.207-5.812 6.54-12.988 10.027-21.618 11.27-7.73.346-13.23-1.299-19.691-5.477l-2.75-1.75c-6.798-6.798-10.516-14.329-10.625-24 .151-8.977 2.494-16.104 8.672-22.719 11.952-10.746 26.262-11.069 39.89-3.281"/><path fill="rgb(19,132,242)" d="m132 89 2 1-10 10c0-4.322 2.15-5.884 5-9z"/></svg>