<svg xmlns="http://www.w3.org/2000/svg" width="512" height="512"><path fill="rgb(19,132,242)" d="M30 0h453c-7.015 102.89-7.015 102.89-10.466 151.23l-2.369 33.246-.207 2.907-.417 5.855q-1.916 26.918-3.835 53.837-1.642 23.02-3.279 46.041a407210 407210 0 0 1-4.261 59.846l-.204 2.857-1.41 19.81q-.853 12-1.71 23.999l-.87 12.206q-.397 5.588-.796 11.174l-.42 5.925c-.482 6.701-1.037 13.386-1.756 20.067l-43.642 14.39a117763 117763 0 0 1-70.253 23.145l-2.725.897a129248 129248 0 0 1-41.588 13.675c-6.141 2.015-12.275 4.047-18.383 6.163l-2.952 1.015a480 480 0 0 0-5.166 1.816l-2.249.774-1.877.666c-5.442 1.154-10.154.42-15.36-1.316l-3.634-1.195-3.94-1.33q-2.103-.699-4.206-1.393a2493 2493 0 0 1-9.067-3.022c-4.832-1.62-9.669-3.225-14.506-4.829q-9.01-2.988-18.017-5.988c-16.241-5.409-32.502-10.761-48.763-16.111q-7.743-2.547-15.485-5.1l-14.311-4.719c-11.999-3.96-24.017-7.858-36.037-11.754L61 449a747414 747414 0 0 1-13.526-189.014q-2.25-31.496-4.51-62.991-2.317-32.325-4.624-64.648-1.423-19.942-2.856-39.883-.983-13.68-1.955-27.359-.56-7.89-1.13-15.778-.523-7.232-1.033-14.465-.185-2.607-.375-5.213-.26-3.566-.507-7.133l-.285-3.988C29.928 12.358 30 6.176 30 0m81 75c.632 12.64 1.309 25.252 2.2 37.873l.35 5.033q.468 6.728.942 13.454l.79 11.282q.93 13.299 1.865 26.596.962 13.695 1.918 27.39.824 11.808 1.653 23.616.495 7.032.984 14.064.46 6.593.926 13.185.17 2.415.338 4.83.229 3.3.465 6.598l.261 3.726c.288 3.135.79 6.248 1.308 9.353h203l-2 22c-.493 6.296-.982 12.59-1.433 18.89-.194 2.704-.396 5.408-.598 8.112-.683 9.36-1.138 18.61-.969 27.998l-1.964.505c-7.33 1.936-14.454 4.287-21.606 6.796l-7.153 2.459a1618 1618 0 0 0-11.131 3.865 1225 1225 0 0 1-10.841 3.738l-3.334 1.196c-6.83 2.293-11.185 2.813-17.971.441l-2.87-.885a548 548 0 0 1-9.935-3.213l-3.639-1.195q-4.748-1.56-9.495-3.13-4.842-1.598-9.686-3.188C197.721 351.24 197.721 351.24 191 349c-1.936-3.872-1.476-8.642-1.719-12.91.063-2.96.063-2.96-1.281-4.09a104 104 0 0 0-5.53-.114h-3.579l-3.895.016-3.964.005q-5.226.006-10.45.024-5.33.014-10.658.02-10.463.016-20.924.049.609 11.464 1.306 22.922c.215 3.548.422 7.095.608 10.644.214 4.08.467 8.157.723 12.235l.187 3.864.241 3.578.182 3.156c.528 2.76.528 2.76 2.904 4.316 3.088 1.393 6.156 2.545 9.375 3.607l1.933.643q3.167 1.048 6.338 2.086 2.246.743 4.49 1.488 5.993 1.986 11.99 3.958c6.578 2.168 13.151 4.35 19.726 6.528l4.897 1.622c9.932 3.289 19.853 6.608 29.745 10.017l2.937 1.012q6.442 2.223 12.876 4.476l4.42 1.532 3.706 1.298c8.712 2.596 13.66 1.41 22.21-1.524l3.545-1.177a1654 1654 0 0 0 9.57-3.224c3.337-1.13 6.68-2.245 10.024-3.362q8.41-2.813 16.81-5.654c7.906-2.674 15.82-5.327 23.735-7.976a16124 16124 0 0 0 20.42-6.854q6.544-2.198 13.084-4.41l3.356-1.127c1-.34 2.002-.679 3.033-1.028l2.651-.895c1.95-.585 1.95-.585 2.978-1.751.244-2.104.422-4.216.576-6.328l.15-2.027q.25-3.387.49-6.775.176-2.419.354-4.838.483-6.596.955-13.193.396-5.511.797-11.023a29454 29454 0 0 0 1.88-26.045q.964-13.4 1.941-26.8.84-11.517 1.67-23.035.494-6.872.995-13.744.474-6.48.933-12.964.17-2.364.344-4.728.239-3.26.466-6.521l.264-3.667c.261-6.098.185-12.208.185-18.312H180l-1-21-4-56h222c1.62-19.979 3.13-39.975 4-60z"/></svg>