<svg xmlns="http://www.w3.org/2000/svg" width="512" height="512"><path fill="rgb(19,132,242)" d="M304.75-.75c3.928.906 4.232 1.621 6.313 4.938C322.07 24.59 326.577 47.453 320 70c-8.303 24.056-27.659 43.568-47.398 58.969-3.109 2.427-6.103 4.97-9.102 7.531a550 550 0 0 1-12 9.938c-18.733 14.576-18.733 14.576-27.71 35.546-1.258 28.044 11.512 58.852 23.416 83.585 3.517 7.445 3.517 7.445 2.794 11.431-2 2-2 2-5.14 2.055-5.082-.907-8.089-4.393-11.61-7.93l-2.12-2.066a637 637 0 0 1-4.2-4.143 293 293 0 0 0-5.028-4.865c-19.797-19.057-37.107-44.848-39.105-72.903-.433-25.583 14.36-44.45 31.203-62.148l1.762-1.922c11.4-12.06 26.278-21.226 39.7-30.842 22.89-16.445 38.444-31.192 44.086-60.038.462-3.268.534-6.322.48-9.62l-.038-3.605q-.053-3.746-.117-7.493l-.033-3.59-.051-3.28C300.092.865 301.2.218 304.75-.75M149 427c.375 3 .375 3 0 6-2.857 1.905-4.284 2.426-7.543 3.078l-2.733.571-2.911.601c-10.287 2.216-20.361 5.024-29.813 9.75 76.781 34.704 199.14 17.793 278.563-.562l2.467-.563c5.19-1.252 10.007-2.993 14.919-5.086C404 440 404 440 406 440l-.562-3.812c-.445-3.015-.436-4.193.562-7.188 2.625-.812 2.625-.812 6-1 4.569 2.956 7.156 5.774 9 11 .7 4.313.405 7.19-1.562 11.125-26.217 30.923-92.494 32.05-129.908 35.164-21.378 1.656-42.676 2.028-64.11 1.972-4.405-.012-8.81-.005-13.215.007-17.325.038-34.6-.15-51.896-1.194l-2.073-.125A513 513 0 0 1 119 482c-.823-.115-1.645-.23-2.493-.347-16.64-2.41-37.233-6.17-48.3-19.821C65.079 457.085 65.25 451.455 66 446c2.73-6.39 9.223-9.094 15.29-11.656 14.96-5.418 54.125-16.4 67.71-7.344M179.378 275.938c2.499-.059 4.997-.097 7.497-.125l2.365-.04c1.922-.003 3.843.103 5.76.227 2 2 2 2 2.375 4.438C197 283 197 283 195.282 284.573c-2.43 1.52-4.393 2.173-7.177 2.822l-2.876.698-3.042.72C166.474 292.108 166.474 292.108 153 300q4.28.731 8.562 1.438l2.366.408c57.669 9.42 128.19 5.966 184.867-7.26 3.183-.582 5.98-.837 9.205-.586 2 2 2 2 2.078 5.316-1.277 4.365-2.378 5.221-6.141 7.449l-2.187 1.173-2.29 1.278C310.309 330.346 263.6 334.23 220 335l-2.512.05A362 362 0 0 1 203 335l-2.712-.054C131.126 333.38 131.126 333.38 111 315c-3.343-3.686-4.822-6.182-5.313-11.187.392-4.779 1.347-8.018 4.313-11.813 17.486-14.81 47.678-15.496 69.378-16.062"/><path fill="rgb(19,132,242)" d="M354 106c.895 3.129.895 3.129 1 7-2.09 2.421-3.812 4.044-6.312 5.938l-1.96 1.576A399 399 0 0 1 341 125a2390 2390 0 0 0-5 4c-.791.63-1.583 1.258-2.398 1.906C310.809 148.838 310.809 148.838 294 172l-1.07 2.133c-2.802 6.437-2.907 12.745-.618 19.367 2.525 5.813 6.126 10.975 9.61 16.244 3.46 5.244 6.662 10.435 9.078 16.256l.957 2.262c4.298 11.872 3.028 25.16-2.21 36.437C303.171 277.544 292.55 290.617 280 298c-2.812.5-2.812.5-5 0-2-3-2-3-1.781-5.746.854-3.56 1.998-6.888 3.281-10.317 3.013-8.066 6.079-17.872 2.512-26.261-1.545-2.355-3.223-4.5-5.012-6.676q-2.48-3.148-4.937-6.312l-1.307-1.684C256.849 226.79 251.476 211.74 250 194l-.254-2.707C249.17 179.768 253.792 169.709 261 161l2.3-2.828c10.788-12.506 24.318-21.904 38.63-29.985a264 264 0 0 0 4.716-2.779c7.393-4.42 14.946-8.176 22.791-11.72l3.467-1.588c13.975-6.38 13.975-6.38 21.096-6.1M190 390c.625 2.813.625 2.813 1 6l-2 3q6.187.973 12.375 1.938l3.504.552c12.493 1.941 24.735 2.847 37.371 2.947l2.474.022c15.715.072 30.766-1.924 46.198-4.744A566 566 0 0 1 301 398l2.611-.445c7.433-.688 13.24 3.926 19.264 7.757q1.706 1.05 3.414 2.092c9.598 5.942 9.598 5.942 11.711 8.596.09 2.996.09 2.996-1 6-2.746 1.723-2.746 1.723-6.437 3.063l-2.025.741C281.759 442.482 216.184 448.497 170 427c-5.442-2.969-10.194-7.388-13-13-.513-5.15-.62-9.606 1.5-14.375 8.138-8.545 19.925-12.122 31.5-9.625M440 456c2.106 3.159 2.331 4.276 1.656 7.918C437.331 477.641 425.16 486.588 413 493c-36.499 17.447-82.908 19.147-122.672 19.168l-4.371.01q-4.552.009-9.106.007-4.569 0-9.138.02c-19.668.088-39.11-.388-58.713-2.205l-2.559-.237c-4.801-.457-9.59-.994-14.379-1.575l-2.092-.251a672 672 0 0 1-31.157-4.5l-3.615-.598c-5.803-1.022-10.916-2.202-16.198-4.839-.187-2.875-.187-2.875 0-6 3.697-2.464 5.24-2.167 9.634-1.983l4.323.153 2.366.096c27.25 1.073 54.524.922 81.791.92q7.243.001 14.485.02c95.625 2.66 95.625 2.66 181.557-33.913 2.442-1.712 3.928-1.753 6.844-1.293"/><path fill="rgb(19,132,242)" d="M178 337c.438 2.688.438 2.688 0 6-2.111 2.048-4.459 3.535-7 5 3.714 2.476 7.246 2.895 11.563 3.563l2.306.38a180 180 0 0 0 27.123 2.295l2.822.03c31.11.259 60.931-1.918 91.383-8.337 15.141-3.19 15.141-3.19 20.74.264q2.05 1.44 4.063 2.93l2.04 1.438c4.539 3.242 8.768 6.758 12.96 10.437-.75 4.75-.75 4.75-3 7-2.926.753-5.813 1.4-8.773 1.988l-2.722.557c-2.958.6-5.919 1.185-8.88 1.767l-3.068.609c-125.895 24.85-125.895 24.85-170.245-4.421-3.419-2.436-5.423-4.734-7.312-8.5-.538-5.023-.144-8.018 3-12 7.542-7.191 22.955-16.335 33-11M402.281 268.844c10.168-.386 19.576 1.974 27.719 8.156l2.465 1.75c2.933 2.603 4.784 5.42 6.66 8.813l1.047 1.887c5.95 11.078 7.85 23.329 5.137 35.702-6.447 19.232-22.72 30.112-39.934 38.973C392.908 370.331 375.134 378.852 361 378c-1.875-1.187-1.875-1.187-3-3 .236-2.97.526-4.523 2.651-6.662l2.146-1.467 2.387-1.679 2.566-1.755c7.821-5.549 14.995-11.344 21.837-18.055a335 335 0 0 1 4.183-4c8.005-7.704 17.53-17.715 18.23-29.382-.625-5.663-2.476-10.347-7-14-10.345-6.6-21.883-9.019-34.012-9.691C369 288 369 288 366 286c-.187-3.125-.187-3.125 0-6 11.525-6.333 23.152-10.257 36.281-11.156"/></svg>