<svg xmlns="http://www.w3.org/2000/svg" width="512" height="512"><path fill="rgb(19,132,242)" d="M0 0h512v512H0z"/><path fill="#fff" d="M436.875 245.313q2.1 1.8 4.125 3.687l2.516 2.277C449.472 256.922 453.92 262.893 458 270c-2.948 3.16-5.998 5.445-9.648 7.75l-3.297 2.094-3.43 2.156-3.406 2.156a2845 2845 0 0 1-6.306 3.985 202 202 0 0 0-6.147 4.094C423 294 423 294 420.828 293.996c-2.363-1.288-3.514-2.75-5.078-4.933l-1.578-2.153C413 285 413 285 413 283l-1.723-.84c-3.058-1.558-6-3.304-8.96-5.039-6.223-3.011-14.193-3.189-20.82-1.473-5.45 2.158-9.414 5.33-12.497 10.352-2.041 6.06-2.073 13.467.563 19.313 7.26 12.215 23.789 16.977 36.111 22.43C437.76 341.946 437.76 341.946 450 353l2.547 2.23c12.936 12.015 18.943 26.813 19.691 44.243.421 17.56-2.72 34.133-14.55 47.84-17.127 17.808-39.56 24.432-63.772 24.972-10.342.1-19.876-.761-29.916-3.285l-3.309-.809C347.3 464.503 335.411 458.161 325 449l-2.422-1.809c-3.18-2.703-5.6-5.709-8.14-9.003l-1.42-1.792C305 426.114 305 426.114 305 422q5.678-3.255 11.359-6.506l3.848-2.205C328.091 408.769 336 404.31 344 400c.63.857 1.258 1.714 1.906 2.598 8.53 11.467 18.506 22.59 33.399 25.152 13.1 1.215 24.155.368 36.195-5.437 5.282-4.887 7.788-10.035 8.188-17.25-.334-6.545-2.333-11.178-6.688-16.063-10.703-9.13-25.951-14.304-38.779-19.737-19.827-8.429-38.59-18.376-50.221-37.263-.48-.776-.96-1.552-1.453-2.352-8.754-15.767-10.01-34.871-5.384-52.088 4.932-16.512 16.104-29.148 31.11-37.35 25.747-12.414 60.924-12.438 84.602 5.102M231 235h48c.113 22.585.205 45.17.26 67.755.025 10.488.06 20.977.117 31.465q.076 13.728.093 27.454c.007 4.837.022 9.674.059 14.511.4 54.97.4 54.97-17.927 76.21-14.59 14.61-34.946 19.801-55.102 19.98-13.266-.118-25.54-2.42-37.5-8.375l-2.95-1.422C152.468 455.404 142.059 443.532 135 430v-3c2.32-1.714 2.32-1.714 5.555-3.582l1.744-1.02a746 746 0 0 1 5.576-3.21l3.648-2.12q2.686-1.562 5.379-3.113a374 374 0 0 0 13.114-7.93C172 405 172 405 175 405a91 91 0 0 1 4.25 6.625c4.208 6.843 8.636 12.959 16.48 15.898 8.74 1.836 17.554 1.563 25.317-3.05 5.697-4.296 7.58-10.733 8.953-17.473.442-5.642.438-11.267.432-16.924l.031-5.088c.028-4.578.037-9.156.043-13.734.01-4.794.036-9.588.06-14.382.044-9.066.072-18.132.095-27.198.028-10.327.071-20.653.117-30.98.092-21.231.162-42.462.222-63.694"/></svg>