<svg xmlns="http://www.w3.org/2000/svg" width="512" height="512"><path fill="rgb(19,132,242)" d="m281 52.313 6.383 3.773 3.305 1.96c5.373 3.17 10.78 6.28 16.187 9.392l9.843 5.67Q324.86 77.803 333 82.5l6.5 3.75 39 22.5 3.253 1.877 6.468 3.733a8519 8519 0 0 0 16.736 9.636q8.172 4.695 16.32 9.43a802 802 0 0 0 7.032 4.012c6.502 3.778 12.693 7.714 15.241 15.173.656 3.483.598 6.947.597 10.478l.011 2.49q.015 4.138.019 8.275l.02 5.929q.028 9.74.041 19.479l.013 6.708q.029 15.757.041 31.515.015 18.184.077 36.369.044 14.058.048 28.117c.002 5.597.011 11.193.036 16.79q.035 7.9.018 15.801 0 2.895.02 5.79c.14 20.802.14 20.802-7.007 28.28-4.789 3.507-10.075 6.328-15.234 9.243l-5.25 2.998a4019 4019 0 0 1-5.428 3.09c-5.539 3.154-11.054 6.348-16.572 9.537l-6.492 3.746-3.25 1.875q-4.913 2.834-9.828 5.664a5512 5512 0 0 0-31.305 18.152c-9.267 5.42-18.576 10.762-27.903 16.076a2478 2478 0 0 0-24.972 14.425c-6.818 3.985-13.636 7.969-20.5 11.875l-1.933 1.113c-5.574 3.149-10.389 4.364-16.817 3.574-7.76-2.363-14.645-6.483-21.562-10.625l-6.34-3.762-3.125-1.86a424 424 0 0 0-8.102-4.648l-2.324-1.315a317 317 0 0 0-4.194-2.33c-5.608-3.205-9.689-7.29-12.705-13.034-1.628-6.09-1.693-12.992.915-18.801 2.985-5.063 7.084-8.524 12.375-11 13.917-2.84 24.637 5.21 36.05 12.261a447 447 0 0 0 5.09 3.071l3.013 1.843c3.552 1.465 5.25 1.265 8.909.2 2.513-1.129 2.513-1.129 4.922-2.633.93-.55 1.858-1.102 2.816-1.67.994-.6 1.988-1.202 3.012-1.822l6.492-3.855 3.382-2.018c5.389-3.196 10.82-6.317 16.251-9.44l9.843-5.67q8.143-4.694 16.282-9.392l6.5-3.75 3.25-1.875 13.004-7.502 6.46-3.728a16804 16804 0 0 1 20.368-11.739q3.308-1.906 6.617-3.808c5.665-3.264 11.284-6.582 16.84-10.03C398 340 398 340 400 340V172l-5-2a151 151 0 0 1-4.676-2.547l-2.72-1.538-2.916-1.665-3.075-1.747c-9.191-5.233-18.325-10.563-27.453-15.905-9.6-5.615-19.241-11.156-28.878-16.707Q317.14 125.198 309 120.5a57520 57520 0 0 0-30.023-17.314l-3.032-1.749-2.96-1.69a215 215 0 0 1-6.197-3.774L263.618 94l-2.833-1.812c-3.481-1.485-5.179-1.227-8.785-.188-2.513 1.129-2.513 1.129-4.922 2.633-.93.55-1.858 1.102-2.816 1.67-.994.6-1.988 1.202-3.012 1.822l-6.492 3.855-3.382 2.018c-5.389 3.196-10.82 6.317-16.251 9.44l-9.843 5.67Q197.14 123.803 189 128.5l-6.5 3.75-3.25 1.875-13.004 7.502-6.46 3.728a16804 16804 0 0 1-20.368 11.739q-3.308 1.906-6.617 3.808c-5.665 3.264-11.284 6.582-16.84 10.03C114 172 114 172 112 172v169l5 2a163 163 0 0 1 5.938 4.203q1.73 1.237 3.464 2.469c1.8 1.282 3.59 2.571 5.356 3.898 6.2 4.634 11.138 8.276 19.265 7.106 5.553-1.317 10.776-3.357 15.977-5.676l3-1-.008-2.57q-.1-30.973-.147-61.947-.022-14.978-.071-29.957-.046-13.056-.056-26.114a3550 3550 0 0 0-.035-13.824q-.03-6.51-.022-13.02-.001-2.385-.019-4.77c-.063-9.188.041-16.586 5.108-24.548 4.907-4.907 10.156-7.044 17-7.5 6.656.1 12.532 2.532 17.25 7.25 4.133 5.975 5.123 10.692 5.14 17.854l.01 2.088q.01 3.464.011 6.927l.015 4.968q.019 6.75.024 13.501l.012 8.445q.02 13.225.027 26.45.007 15.238.05 30.477.033 11.794.034 23.588 0 7.035.025 14.072.023 6.629.01 13.258-.002 2.421.013 4.842c.096 16.587-2.705 30.075-14.289 42.592-14.69 13.67-35.51 18.82-55.082 19.938l-2.48.195c-11.21.522-19.147-5.02-28.051-11.144-5.32-3.659-10.742-7.16-16.156-10.676l-5.942-3.879a943 943 0 0 0-9.336-6.023C75.562 369.66 70.398 365.912 68 357c-.185-2.816-.275-5.53-.26-8.343-.005-.825-.008-1.65-.012-2.5-.01-2.757-.007-5.513-.003-8.27q-.007-2.97-.015-5.939c-.014-5.372-.014-10.744-.012-16.116q0-6.727-.008-13.456-.016-15.874-.006-31.748c.006-10.915-.006-21.83-.027-32.746q-.026-14.06-.02-28.123c.001-5.597-.001-11.195-.015-16.793q-.018-7.896.002-15.79.004-2.897-.009-5.792c-.01-2.639-.002-5.276.01-7.914l-.022-2.307c.068-6.734 2.023-12.464 6.606-17.613 4.309-3.73 9.505-6.258 14.478-8.988q1.887-1.053 3.771-2.11 3.876-2.174 7.757-4.334c5.672-3.165 11.29-6.424 16.91-9.68q3.222-1.863 6.445-3.723l3.212-1.856q8.108-4.682 16.218-9.359l3.246-1.873q8.16-4.71 16.324-9.412a5520 5520 0 0 0 31.305-18.153c12.198-7.132 24.461-14.15 36.747-21.131a893 893 0 0 0 7.186-4.15l1.912-1.111a2163 2163 0 0 0 5.297-3.09c12.936-6.85 24.781 1.012 35.983 7.733"/><path fill="rgb(19,132,242)" d="M368.375 188.25c9.159 8.772 15.493 20.03 16.146 32.818.12 6.123-.123 11.4-4.033 16.389-.49.51-.982 1.018-1.488 1.543l-1.457 1.512c-4.772 4.394-9.883 6.007-16.332 5.797-6.156-.86-11.532-3.078-15.711-7.746-2.465-3.269-4.262-6.328-4.703-10.473-.498-3.503-.944-5.438-3.832-7.645-8.946-4.673-17.86-5.816-27.84-5.757l-2.938.012c-9.38.149-20.139 1.252-27.187 8.3-.5 3.374-.5 3.374 0 7 6.39 7.243 17.683 10.033 26.688 12.375q3.316.902 6.632 1.809l3.368.913c24.518 6.684 46.89 13.359 61.312 35.903 6.962 12.753 8.938 26.167 6.383 40.45-4.078 13.803-14.508 25.006-26.98 31.819-24.007 12.362-55.396 13.677-81.005 5.594A128 128 0 0 1 266 355l-2.45-1.117c-6.406-3.243-11.457-7.877-16.55-12.883l-1.79-1.75c-7.828-8.351-11.815-20.39-11.519-31.73.868-7.082 4.025-11.939 9.528-16.329C249.463 287.015 255.63 287.2 263 288c5.354 1.934 10.28 5.958 13 11 .55 1.861 1.046 3.738 1.5 5.625.86 3.508 1.274 5.117 3.688 7.875 14.643 7.81 32.971 8.376 48.75 3.613 4.094-1.703 7.204-3.633 10.062-7.113l-1.125-3.187-.633-1.793c-3.868-6.29-9.852-8.317-16.555-10.395l-2.746-.886c-7.2-2.288-14.47-4.304-21.753-6.301-21.777-5.988-45.497-13.675-57.368-34.508-6.176-11.857-7.915-25.623-4.632-38.68 4.991-15.71 14.99-26.683 29.437-34.375 30.912-14.816 76.881-13.382 103.75 9.375"/></svg>