<svg xmlns="http://www.w3.org/2000/svg" width="512" height="512"><path fill="#0f0f0fff" d="m94.104 5.86 4.342-.01q5.953-.01 11.906-.01c4.283-.002 8.567-.01 12.851-.016q14.046-.02 28.092-.024l17.553-.012q24.317-.019 48.635-.026h6.293l9.485-.003q25.378-.008 50.756-.045 26.078-.035 52.157-.037 14.632.001 29.265-.025 12.464-.023 24.927-.012c4.235.004 8.47.003 12.704-.011q5.83-.019 11.66 0a545 545 0 0 0 4.188-.01C443.415 5.476 465.664 13.557 484 30l1.922 1.672c14.118 13.082 25.316 34.814 26.208 54.146l.007 3.148.015 3.647.002 3.996.013 4.254q.017 5.846.022 11.69.01 6.306.029 12.611.034 15.233.052 30.464l.011 8.611a74574 74574 0 0 1 .07 65.922l.001 3.112c.013 16.612.046 33.224.088 49.836q.063 25.611.071 51.221c.004 9.579.015 19.158.048 28.736q.044 12.244.028 24.49c-.005 4.158-.002 8.316.022 12.474.183 32.143-4.976 57.215-27.422 81.22-18.614 17.684-42.084 24.908-67.291 24.89l-4.342.01q-5.953.01-11.906.01c-4.283.002-8.567.01-12.851.016q-14.046.02-28.092.024l-17.553.012q-24.317.019-48.635.026h-6.293l-6.319.002h-3.166q-25.378.009-50.756.046-26.079.035-52.157.037-14.632-.001-29.265.025-12.464.023-24.927.012c-4.235-.004-8.47-.003-12.704.011q-5.83.019-11.66 0a545 545 0 0 0-4.188.01C68.585 506.524 46.336 498.443 28 482l-1.922-1.672C11.963 467.248.754 445.51-.129 426.178l-.005-3.152-.014-3.653v-4.002q-.004-2.13-.01-4.26-.014-5.854-.017-11.709-.007-6.315-.022-12.628c-.02-10.168-.03-20.336-.039-30.504l-.015-14.376a78001 78001 0 0 1-.046-63.334 34294 34294 0 0 0-.066-49.9q-.049-25.637-.054-51.273c-.002-9.59-.01-19.18-.036-28.77q-.034-12.256-.02-24.513c.004-4.164.002-8.328-.017-12.492q-.026-5.734-.001-11.47c.003-2.014-.013-4.03-.03-6.044.17-24.46 10.769-46.569 28.03-63.675C45.947 12.835 69.023 5.842 94.103 5.86"/><path fill="#00a8fd" d="M176.215 132.684c2.316.004 4.631-.02 6.947-.045 14.233-.06 28.871 1.289 42.338 6.174l2.238.783c18.706 6.761 33.852 19.452 42.532 37.463 8.28 18.342 9.264 42.484 2.199 61.39L271 242l-1.281 3.27c-3.69 8.354-9.32 14.386-15.719 20.73l-1.926 2.027c-8.235 8.053-19.891 12.603-30.762 15.848l-1.937.579c-13.172 3.639-26.14 3.8-39.688 3.671L161 288v71c-11.107.03-11.107.03-22.438.063l-7.091.027-5.53.008-2.928.015h-2.769l-2.415.007C116 359 116 359 115 358c-.098-2.87-.13-5.716-.12-8.586l-.003-2.762q-.001-4.619.01-9.236l-.001-6.592q.001-8.977.013-17.956c.006-6.247.006-12.494.008-18.742q.004-15.739.018-31.477.014-16.215.02-32.428v-2.018l.005-10.02q.016-41.591.05-83.183 8.637-.421 17.275-.838l5.862-.285c12.69-.62 25.368-1.23 38.078-1.193"/><path fill="#00a7fd" d="M413 193c2.54 3.811 2.288 6.9 2.266 11.316l.005 2.462q.002 2.573-.01 5.147c-.011 2.631 0 5.262.012 7.893q0 2.499-.007 4.998l.012 2.393c-.048 5.561-.048 5.561-2.278 7.791-5.23-.472-10.28-2.866-15.146-4.74-10.515-3.87-21.102-4.605-32.229-4.572l-3.441-.05c-8.017-.017-8.017-.017-15.184 3.362-2.14 2.606-2 4.022-1.937 7.438 1.412 5.368 4.483 7.702 9.187 10.484q1.867.931 3.75 1.828l2.073 1.015c5.79 2.792 11.693 5.3 17.615 7.798C397.345 265.865 413.438 274.53 422 295c1.287 4.542 1.184 9.127 1.188 13.813l.037 2.33c.033 13.088-5.32 25.157-14.163 34.732-8.725 8.149-20.41 13.645-32.062 16.125l-2.723.613C350.888 367.05 323.862 364.486 302 355c-1.969-1.56-2.883-2.389-3.36-4.88l.02-2.132v-2.427l.047-2.604.013-2.678c.017-2.822.054-5.644.092-8.466q.024-2.87.042-5.74.051-7.037.146-14.073c4.394-1.465 7.18.764 11.125 2.688 18.325 8.556 39.654 12.381 59.484 7.261 3.274-1.3 4.83-2.826 6.391-5.949.545-3.996.283-5.588-2.031-8.953-3.088-3.52-6.602-5.208-10.844-7.047l-2.27-1.03c-4.749-2.129-9.559-4.044-14.418-5.908-17.83-7-35.247-17.218-43.886-35.054-4.12-11.364-4.847-26.324.133-37.531L304 218l1.473-2.79c8.313-14.268 21.907-22.65 37.527-27.148 21.375-5.308 49.598-4.07 70 4.938"/><path fill="#0f0f0fff" d="M162 175c46.163 0 46.163 0 59 11 7.67 7.89 9.462 15.99 9.352 26.708-.294 9.264-2.7 16.6-9.352 23.292-16.644 13.8-38.583 12-59 12z"/></svg>