<svg xmlns="http://www.w3.org/2000/svg" width="512" height="512"><path fill="rgb(19,132,242)" d="m186.464 69.74 2.695-.022 2.936.007 3.111-.015c3.407-.014 6.813-.013 10.22-.01l7.149-.014q7.516-.01 15.033-.002c6.358.006 12.716-.01 19.075-.034a4059 4059 0 0 1 14.803-.013q3.51 0 7.018-.015C316.301 69.439 359.205 82.369 394 116l2.617 2.46c29.773 28.661 45.278 69.95 46.478 110.764.04 3.347.052 6.692.05 10.04l.01 3.804q.012 5.104.012 10.209l.006 6.408q.014 11.22.012 22.441.001 10.392.026 20.785.019 8.981.018 17.963-.002 5.338.013 10.677c.088 31.41-2.546 59.956-24.242 84.449l-1.598 2.027C402.442 436.59 378.152 447.077 355 450c-4.673.227-9.345.27-14.023.295q-2.216.018-4.433.062c-12.762.254-23.899-1.22-33.544-10.357-9.493-10.021-10.6-21.662-10.46-34.879l.002-4.512q.006-4.69.046-9.382c.035-4.011.042-8.023.04-12.034q.003-4.642.026-9.283.01-2.22.012-4.441c.005-2.059.022-4.116.043-6.174l.024-3.547C293 353 293 353 295 351a77 77 0 0 1 7.188.312l3.917.301 2.254.18c10.725.843 21.36 1.394 32.115 1.392 2.119.003 4.237.02 6.356.04q2.055.005 4.111.005l3.678.013c4.88-.35 8.289-1.418 12.194-4.368 2.752-3.617 3.497-6.36 3.187-10.875-1.508-4.206-3.146-6.712-7-9-3.977-1.326-7.813-1.176-11.96-1.21l-5.563-.087q-4.343-.062-8.686-.104c-19.845-.2-38.97-2.021-57.791-8.599l-1.911-.667C254.297 310.173 234.867 297.3 218 280l-1.875-1.703c-26.2-24.516-40.825-63.423-42.226-98.846-.048-2.68-.068-5.358-.076-8.038l-.02-3.049c-.02-3.293-.031-6.586-.041-9.88l-.013-3.426q-.03-8.958-.044-17.916a4003 4003 0 0 0-.085-18.488c-.026-4.749-.035-9.498-.038-14.247q-.008-3.409-.035-6.818a966 966 0 0 1-.017-9.52l-.039-2.834c.045-5.548.667-8.917 4.509-13.235 2.907-1.781 5.077-2.252 8.464-2.26m148.224 168.51c-3.377 5.503-5.237 10.372-4.188 16.875 1.53 5.875 3.684 9.965 8.77 13.414 5.161 2.839 9.852 4.803 15.73 3.461 6.8-2.214 11.313-5.397 14.938-11.605 2.336-5.266 2.76-10.014 1-15.52-2.359-5.371-5.871-9.35-10.563-12.813-10.372-3.265-18.085-1.21-25.687 6.188"/><path fill="rgb(19,132,242)" d="M147 97c1.586 3.172 1.153 6.595 1.158 10.08l.015 2.534q.016 2.735.026 5.469.02 4.356.053 8.712c.062 8.26.116 16.52.15 24.781.02 5.054.056 10.107.1 15.16q.021 2.865.026 5.728c.06 31.937 7.455 61.386 22.472 89.536l.977 1.852C178.946 273.966 187.786 285.247 198 296l1.499 1.597C213.529 312.467 229.134 323.19 247 333l1.893 1.041a664 664 0 0 0 7.271 3.936C258 339 258 339 259 340c.114 1.358.16 2.723.177 4.086l.039 2.632.022 2.872.025 2.95q.02 3.107.032 6.212c.017 3.141.061 6.281.105 9.422q.015 3.02.026 6.04l.053 2.818c-.034 10.41-3.712 18.206-10.838 25.698-7.149 6.144-15.383 9.358-24.756 9.431l-3.02.03-3.244.012-3.4.017q-3.57.014-7.144.02c-3.574.01-7.149.04-10.723.072-37.787.177-70.044-9.19-97.542-36.062-13.087-13.23-22.026-28.586-28.124-46.125l-.699-1.956c-4.68-14.33-5.434-29.193-5.377-44.128q-.007-2.728-.016-5.457c-.014-4.88-.009-9.759.001-14.639.008-5.133 0-10.267-.004-15.4q-.007-12.91.016-25.821c.016-9.931.01-19.862-.006-29.792q-.02-12.841-.007-25.683.008-7.648-.005-15.295-.012-7.181.015-14.362.006-2.625-.004-5.25c-.049-14.123 1.1-24.357 10.957-35.03C92.367 81.19 127.719 88.92 147 97"/></svg>