<svg xmlns="http://www.w3.org/2000/svg" width="512" height="512"><path fill="rgb(19,132,242)" d="M299 72c6.436 3.802 10.397 8.49 14 15l1.035 1.828c6.613 14.148.172 34.077-2.288 48.622-.627 3.72-1.239 7.443-1.853 11.165a9074 9074 0 0 1-3.638 21.813q-1.486 8.865-2.962 17.735l-.425 2.557-.856 5.145c-2.669 16.048-5.353 32.094-8.042 48.138q-3.455 20.625-6.88 41.254a43374 43374 0 0 1-9.276 55.66q-1.478 8.854-2.947 17.708a9136 9136 0 0 1-3.609 21.587q-.927 5.499-1.836 11.002c-.657 3.984-1.33 7.966-2.006 11.947l-.566 3.48c-2.052 11.923-5.141 23.665-15.316 31.18-9.375 5.836-17.537 7.093-28.535 6.179-8.768-2.066-16.157-7.015-21.312-14.375A132 132 0 0 1 199 425l-1.035-1.828c-6.613-14.148-.172-34.077 2.288-48.622.627-3.72 1.239-7.443 1.853-11.165a9074 9074 0 0 1 3.638-21.813 12703 12703 0 0 0 3.387-20.292l.856-5.145c2.669-16.048 5.353-32.094 8.042-48.138q3.455-20.625 6.88-41.254a43374 43374 0 0 1 8.85-53.116l.426-2.545q1.478-8.853 2.947-17.707a9136 9136 0 0 1 3.609-21.587q.927-5.499 1.836-11.002c.657-3.984 1.33-7.966 2.006-11.947l.566-3.48c2.052-11.923 5.141-23.665 15.316-31.18C272.379 66.764 286.408 64.847 299 72M395.215 124.32c4.134 2.905 7.383 6.293 10.613 10.153 2.917 3.394 5.982 6.64 9.047 9.902a866 866 0 0 1 13.86 15.11c3.195 3.548 6.439 7.05 9.681 10.556a4146 4146 0 0 1 14.225 15.475q3.428 3.744 6.859 7.484l4.125 4.5 4.125 4.5 1.375 1.5 2.748 2.998q4.15 4.529 8.304 9.053 1.38 1.507 2.757 3.02a298 298 0 0 0 6.77 7.206c9.309 9.714 14.722 19.46 14.573 32.993-1.234 14.377-11.395 23.62-20.723 33.567a962 962 0 0 0-7.116 7.726l-2.723 2.972-1.356 1.481Q468.93 308.26 465.5 312l-2.75 3-39.876 43.501-2.738 2.988a3532 3532 0 0 1-7.062 7.687l-1.453 1.58q-1.421 1.543-2.845 3.082a131 131 0 0 0-6.839 8.037c-5.669 6.702-14.255 10.64-22.87 11.375-10.879.41-19.65-2.172-28.06-9.195-7.113-7.28-10.017-15.733-10.445-25.743.243-12.728 5.782-20.521 14.438-29.312q2.697-2.928 5.375-5.875 1.402-1.528 2.805-3.055A9822 9822 0 0 0 374.25 308l1.375-1.5L421 257c-1.38-3.077-2.979-5.259-5.309-7.687l-1.997-2.1-2.132-2.213-4.382-4.605-2.17-2.275c-4.404-4.644-8.698-9.39-13.01-14.12q-2.749-3-5.5-6l-2.75-3-1.375-1.5L367.25 197l-1.376-1.5a1398 1398 0 0 1-2.738-2.998 348 348 0 0 0-7.062-7.537c-10.07-10.5-15.489-19.578-15.351-34.29.654-8.667 4.16-16.476 10.277-22.675 13.011-10.802 29.528-12.435 44.215-3.68M158.813 126.125c6.347 5.3 10.802 12.703 12.187 20.875.998 11.707-1.024 21.237-8.621 30.36-4.503 4.997-9.106 9.9-13.734 14.78-3.539 3.735-6.988 7.542-10.415 11.38-3.181 3.538-6.415 7.028-9.647 10.522q-5.086 5.497-10.145 11.02l-1.363 1.488-2.716 2.966Q110.93 233.26 107.5 237l-2.707 2.953L91 255c1.38 3.077 2.979 5.259 5.309 7.688l1.997 2.098 2.132 2.214 4.382 4.605 2.17 2.275c4.404 4.644 8.698 9.39 13.01 14.12q2.748 3 5.5 6l4.125 4.5L144.75 315l1.376 1.5q1.371 1.497 2.738 2.998a348 348 0 0 0 7.062 7.537c10.07 10.5 15.489 19.578 15.351 34.29-.647 8.573-4.083 16.634-10.277 22.675-9.546 7.296-18.033 9.963-30 9-15.387-2.635-26.35-16.356-36.004-27.719-2.88-3.29-5.88-6.467-8.871-9.656a870 870 0 0 1-13.86-15.11c-3.195-3.548-6.439-7.05-9.681-10.556a4146 4146 0 0 1-14.225-15.475 14731 14731 0 0 0-9.605-10.48q-3.465-3.78-6.931-7.555-1.38-1.507-2.757-3.02a298 298 0 0 0-6.77-7.206c-9.377-9.785-14.685-19.46-14.503-33.063.954-14.568 11.242-23.452 20.67-33.514a997 997 0 0 0 7.1-7.708l4.078-4.454Q43.07 203.74 46.5 200l2.75-3 39.876-43.501 2.738-2.988a3532 3532 0 0 1 7.062-7.687l1.453-1.58q1.421-1.543 2.845-3.082a131 131 0 0 0 6.838-8.037c12.366-14.617 33.965-14.442 48.75-4"/></svg>