<svg xmlns="http://www.w3.org/2000/svg" width="512" height="512"><path fill="rgb(19,132,242)" d="M288.387 8.316C318.777 27.895 336.087 62.622 347 96l2.198-.367c37.555-6.086 78.114-8.697 111.33 13.02 12.99 9.438 20.109 23.228 23.003 38.82 4.552 34.25-14.444 66.458-34.344 92.68A1399 1399 0 0 1 440 252c1.37 3.054 2.939 5.156 5.25 7.563 25.34 28.098 43.993 62.537 42.882 100.957-.831 15.634-9.09 28.059-20.132 38.48-23.476 19.884-57.407 21.508-86.651 19.32-9.363-.894-18.655-2.406-27.927-3.969-2.509-.423-2.509-.423-5.422-.351l-.835 2.237C336.81 443.775 325.062 469.907 304 491c-.8.81-1.598 1.622-2.422 2.457-13.736 13.176-29.574 19.191-48.478 19.016-20.713-.659-36.296-11.978-50.319-26.395-18.7-20.299-29.333-46.54-38.781-72.078l-3.645.586C123.79 420.258 81.611 424.369 49 403c-13.059-10.144-22.682-23.362-25-40-3.276-40.739 18.801-74.242 43.625-104.413 1.392-1.606 2.854-3.103 4.375-4.587-1.423-4.283-3.522-7.01-6.5-10.375C44.128 218.768 25.756 184.547 28 151c1.904-16.586 9.465-31.126 22.438-41.5 19.52-14.146 42.713-17.918 66.375-17.812l2.301.001c13.46.027 26.599 1.095 39.886 3.311l3.637.598L165 96l.576-1.594C174.596 69.617 185.17 45.804 203 26l2.512-2.797C227.44.026 259.88-8.227 288.387 8.316m-68.074 45.372C212.039 65.268 205.73 78.012 200 91l-1.355 3.02c-2.055 4.345-2.055 4.345-2.442 9.01.61 2.123.61 2.123 2.61 2.908l2.402.632 2.732.763 2.99.792c9.21 2.609 18.144 5.647 27.063 9.125l3.304 1.286c4.24 1.664 8.445 3.333 12.571 5.26 5.185 1.997 9.197 1.49 14.23-.667l2.943-1.229 3.14-1.338c12.527-5.19 25.253-9.533 38.163-13.667 2.592-.876 5.119-1.854 7.649-2.895-2.557-17.754-14.86-38.296-26-52l-2.113-2.61c-7.185-8.423-16.622-17.385-28.004-18.769-17.423-.896-29.41 10.101-39.57 23.067M65.398 138.07C59.954 145.583 58.184 153.893 59 163c4.797 26.097 19.27 47.018 36 67 3.56-3.042 7.11-6.092 10.625-9.187q2.186-1.908 4.375-3.813l2.695-2.363c7.567-6.558 15.456-12.58 23.59-18.422.826-.605 1.652-1.21 2.504-1.832l2.24-1.613c4.387-3.94 5.417-7.95 6.182-13.668l.283-2.012q.299-2.13.584-4.26c.5-3.72 1.038-7.433 1.582-11.146l.329-2.243c1.142-7.607 2.732-15.097 4.487-22.585l.606-2.594.538-2.22c.502-2.351.502-2.351.38-6.042-26.666-4.791-70.087-10.445-90.602 12.07M356 126c.725 6.974 2.092 13.784 3.468 20.656 2.194 10.96 4.253 21.895 5.506 33.01.8 6.518 2.416 10.186 7.651 14.35A509 509 0 0 0 377 197.25q2.316 1.732 4.629 3.469l2.274 1.699c8.907 6.72 17.203 14.139 25.394 21.703l2.14 1.941 1.872 1.723c1.75 1.507 1.75 1.507 4.691 1.215a83 83 0 0 0 5.5-6.375l1.596-2.025C439.312 202.162 455.44 177.22 453 153c-2.162-9.363-6.758-16.31-14.687-21.75-13.241-7.592-28.227-8.63-43.125-8.562h-2.177c-12.524.02-24.67 1.095-37.011 3.312m-170 8q-1.288 5.898-2.563 11.798-.435 2.006-.874 4.013-.629 2.885-1.25 5.771l-.762 3.507c-.644 2.909-.644 2.909-.551 5.911 3.9-1.447 7.375-3.274 10.965-5.371l3.424-1.99 3.548-2.077q3.481-2.032 6.965-4.058l3.11-1.818c2.951-1.665 5.944-3.197 8.988-4.686v-2q-5.896-1.93-11.798-3.845-2.007-.653-4.013-1.31a1860 1860 0 0 0-5.771-1.876l-3.507-1.143c-2.888-.963-2.888-.963-5.911-.826m130.582 1.969-3.799 1.23-3.97 1.301q-2.003.651-4.006 1.3-4.906 1.595-9.807 3.2v2l3.086 1.582c8.963 4.646 17.66 9.572 26.199 14.962l2.18 1.366 1.925 1.223c1.599 1.025 1.599 1.025 3.61.867-1.271-10.553-3.431-20.7-6-31-3.522 0-6.066.877-9.418 1.969M245.5 164.063l-2.758 1.375C231.947 170.9 221.44 176.89 211 183l-2.718 1.588C190.156 194.447 190.156 194.447 174 207a86 86 0 0 0-.633 7.191l-.126 2.208c-.133 2.387-.25 4.775-.366 7.163l-.127 2.47c-1.088 21.14-1.202 42.259.1 63.397q.15 2.541.186 5.085c.19 4.407.409 5.943 3.677 9.13a87 87 0 0 0 3.664 2.168l2.023 1.236q2.164 1.32 4.347 2.604a205 205 0 0 1 6.67 4.192C205.632 321.78 218.231 328.988 231 336l3.167 1.757a1033 1033 0 0 0 9.395 5.118l2.902 1.607 2.727 1.448 2.382 1.288c4.142 1.334 7.326.249 11.238-1.41l2.908-1.511 3.291-1.702 3.49-1.845 1.801-.944c16.447-8.626 32.427-18.036 47.894-28.318a137 137 0 0 1 7.485-4.633l3.32-1.98 2.875-1.633c3.23-3.408 2.978-6.692 3.125-11.242l.157-2.59c.896-15.125 1.136-30.265.843-45.41l-.056-4.55c-.056-4.17-.167-8.336-.307-12.504q-.075-2.488-.103-4.977c.117-9.131.117-9.131-3.211-17.339-2.335-1.881-4.67-3.234-7.323-4.63a963 963 0 0 1-5.793-3.762 1121 1121 0 0 0-6.394-3.925l-1.71-1.047c-10.311-6.308-20.81-12.227-31.494-17.881a1047 1047 0 0 1-7.953-4.276l-5.094-2.734-2.312-1.255c-8.97-4.76-13.62-5.8-22.75-1.058m-110.937 72.375-1.901 1.637A776 776 0 0 0 117 252c1.306 2.914 2.658 4.873 5.012 7.023l1.799 1.657 1.876 1.695 1.819 1.672A569 569 0 0 0 133 269l1.948 1.751 1.884 1.663c.84.746.84.746 1.699 1.506 1.434 1.277 1.434 1.277 3.469 1.08v-44c-2.485 0-5.53 3.786-7.437 5.438M370 231v44c3.914-1.957 6.625-4.227 9.75-7.187 4.186-3.928 8.425-7.704 12.922-11.278 1.764-1.7 1.764-1.7 1.328-5.535a70 70 0 0 0-5.875-5.75l-1.774-1.59c-7.577-8-7.577-8-16.351-12.66M94 276c-19.522 22.097-40.546 49.522-39.418 80.465 1.037 8.767 5.383 15.237 12.02 20.902 17.219 12.213 42.231 11.489 62.148 9.82l2.632-.211c8.311-.765 16.44-2.357 24.618-3.976l-.58-2.844q-1.101-5.442-2.18-10.887-.49-2.455-.985-4.908c-1.729-8.592-3.36-17.126-4.189-25.857-.559-13.98-.559-13.98-7.116-25.634-2.513-1.887-5.187-3.38-7.95-4.87a144 144 0 0 1-4.937-3.937l-2.446-1.95c-8.42-6.798-16.573-13.833-24.392-21.317C98.82 278.523 97.183 277.06 94 276m320.117 1.723-2.242 2.34c-4.127 4.212-8.382 8.122-12.875 11.937l-2.934 2.527a417 417 0 0 1-20.093 16.184L373 313l-3.094 2.2c-3.424 2.882-3.875 5.428-4.375 9.89l-.261 2.089a304 304 0 0 0-.517 4.448c-.43 3.928-.944 7.845-1.452 11.764l-.308 2.417c-1.069 8.201-2.626 16.284-4.305 24.38l-.41 1.987Q357.159 377.592 356 383c27.196 5.844 60.383 10.027 86.012-3.602C449.46 374.522 454.648 368.671 457 360c2.703-25.406-10.887-48.594-26-68l-2.227-2.863c-1.899-2.401-3.829-4.773-5.773-7.137l-1.535-1.945c-1.109-1.39-2.28-2.73-3.465-4.055-2.18-.225-2.18-.225-3.883 1.723M179 342c1.326 10.849 3.517 21.367 6 32 3.859 1.467 6.402.487 10.227-.8l3.625-1.214 3.773-1.298q1.898-.634 3.797-1.264c6.304-1.83 6.304-1.83 11.578-5.424l-3.121-1.836-2.062-1.213-4.552-2.676c-4.008-2.354-8.01-4.716-12.003-7.095l-2.293-1.362q-2.176-1.293-4.346-2.593c-3.464-2.053-6.812-3.866-10.623-5.225m148.027 2.273-2.454 1.488-2.635 1.614-5.426 3.29c-.916.555-1.832 1.11-2.776 1.684-4.143 2.5-8.312 4.954-12.486 7.401l-2.219 1.302Q296.515 362.527 294 364c3.561 3.561 8.757 4.487 13.467 6.051 1.898.633 3.79 1.284 5.681 1.935l3.625 1.213 3.326 1.12c2.846.668 4.211.704 6.901-.319q1.288-6.112 2.563-12.225.435-2.08.874-4.159.629-2.988 1.25-5.98l.762-3.633c.641-2.986.641-2.986.551-6.003-2.61 0-3.746.914-5.973 2.273m-78.199 40.747-3.159 1.334-3.419 1.459c-10.849 4.537-21.802 8.597-32.937 12.375l-2.176.738A2473 2473 0 0 1 195 405c.557 3.988 1.403 7.398 3.004 11.09l1.232 2.853 1.327 2.995 1.373 3.11c8.326 18.647 18.666 39.675 36.689 50.765l2.727 1.707c7.156 4 13.526 4.417 21.648 3.48 18.617-5.638 30.904-24.164 39.687-40.348 9.812-17.01 9.812-17.01 14.313-35.652l-2.509-.835a2806 2806 0 0 1-11.803-3.978l-2.169-.735a489 489 0 0 1-34.188-13.098l-3.16-1.334-2.746-1.185c-4.472-1.54-7.446-.605-11.597 1.185"/><path fill="rgb(19,132,242)" d="M286 219c9.667 7.452 15.28 19.096 17 31 1.334 14.427-2.782 26.636-11.59 38.063-8.418 9.22-20.166 14.082-32.41 15.214-13.872.452-26.501-4.05-36.812-13.464-9.414-10.312-13.917-22.941-13.465-36.813 1.132-12.244 5.994-23.992 15.214-32.41 19.287-14.867 42.095-15.492 62.063-1.59"/></svg>