<svg xmlns="http://www.w3.org/2000/svg" width="512" height="512"><path fill="rgb(19,132,242)" d="M33.328 73.606q2.207-.007 4.414-.019c4.035-.016 8.07-.014 12.106-.008 4.355.002 8.71-.012 13.065-.025q12.795-.028 25.59-.023a16512 16512 0 0 0 26.794-.017l3.013-.003c18.803-.019 37.607-.018 56.411-.01 17.197.005 34.394-.016 51.591-.05q26.493-.05 52.987-.043c9.914.002 19.828-.003 29.743-.028q12.66-.033 25.322-.006c4.305.01 8.61.01 12.915-.01q5.918-.028 11.834.008 2.136.006 4.27-.013c9.423-.084 17.35.788 24.522 7.396 5.877 6.213 7.55 12.63 7.436 20.934v2.545c-.001 2.754-.024 5.508-.048 8.262q-.009 2.877-.013 5.755c-.011 5.032-.04 10.064-.074 15.096-.03 5.141-.044 10.283-.06 15.424A9793 9793 0 0 1 395 179l-2.668.157-3.52.234-3.48.22c-7.246.847-12.652 3.773-17.332 9.389-2.92 3.718-2.92 3.718-4.352 8.137-.49 2.835-.997 4.473-2.648 6.863-2.444 1.704-5.027 2.928-7.75 4.125l-2.097.931c-5.668 2.258-9.946 2.148-15.743-.029l-2.347-1.09c-6.564-2.702-11.216-2.772-17.938-.5-6.099 2.657-10.5 6.871-15.125 11.563-.76.76-1.519 1.521-2.3 2.305-6.754 7.136-9.314 13.076-9.067 22.949.483 3.613 1.695 6.473 3.394 9.676 2.313 4.922 2.007 8.22.283 13.25-4.074 10.538-4.074 10.538-8.72 13.09-3.715 1.48-3.715 1.48-7.285 2.527C270.36 284.96 267.14 289.693 264 295l-2 6H0l-.312-103.375-.138-32.63c-.023-13.158-.023-13.158-.027-19.32q-.01-6.45-.05-12.899-.05-8.234-.038-16.468a679 679 0 0 0-.031-6.034C-.79 89.212-.79 89.212 6.756 81.116c7.887-7.567 16.152-7.553 26.572-7.51M204 127c-1.304 3.33-1.304 3.33-2.043 7.152l-.503 2.23c-.564 2.515-1.103 5.035-1.641 7.556q-.605 2.73-1.215 5.46-1.042 4.659-2.073 9.32c-2.113 9.54-4.326 19.054-6.559 28.566-1.243 5.3-2.48 10.602-3.72 15.903a8152 8152 0 0 1-3.123 13.32q-1.5 6.375-2.977 12.755a1209 1209 0 0 1-1.117 4.757c-.52 2.196-1.029 4.395-1.535 6.595l-.878 3.752c-1.34 7.351-1.34 7.351 1.072 14.072 2.644 1.786 4.106 2.562 7.312 2.562 4.226-2.737 5.72-4.849 6.946-9.69l.977-3.793q.541-2.257 1.077-4.517l.632-2.613c1.794-7.439 3.515-14.894 5.227-22.352l1.665-7.22a15757 15757 0 0 0 3.459-15.056q2.213-9.64 4.445-19.274 1.719-7.437 3.423-14.878.817-3.555 1.641-7.108 1.147-4.96 2.277-9.92l.689-2.946c1.116-4.945 2.008-9.53 1.542-14.633-2.286-3.07-3.755-4.689-7.5-5.625-3.656.914-5.078 2.775-7.5 5.625m-56.492 21.168-2.6 1.437-2.783 1.583-2.938 1.637A1777 1777 0 0 0 130 158l-5.684 3.2q-4.23 2.38-8.451 4.783a873 873 0 0 1-15.767 8.775l-3.462 1.893a790 790 0 0 1-6.653 3.593l-3.03 1.662-2.682 1.448C81.613 185.28 80.425 187.062 79 190c-.237 2.569-.237 2.569 1 5 5.086 4.997 11.308 8.115 17.533 11.473 2.594 1.399 5.18 2.813 7.766 4.226l3.954 2.157a1303 1303 0 0 1 18.31 10.207l2.85 1.608c3.839 2.171 7.664 4.354 11.427 6.653 7.079 4.595 7.079 4.595 15.16 5.676 3.423-2.403 4.768-3.887 5.625-8-.81-3.886-2.594-5.628-5.625-8-3.534-2.176-7.195-4.084-10.875-6a548112465.894 548112465.894 0 0 1-9.787-5.207c-5.361-2.88-10.665-5.86-15.963-8.855l-2.886-1.624c-4.62-2.615-9.124-5.29-13.489-8.314l1.87-1.003c11.232-6.033 22.438-12.103 33.505-18.434l2.495-1.427q3.572-2.056 7.13-4.136l2.716-1.575 2.698-1.585 2.444-1.43c2.037-1.341 3.609-2.516 5.142-4.41.667-3.457.667-3.457 0-7-2.37-2.641-3.828-3.886-7.395-4.233-2.911.26-4.558.977-7.097 2.401m87.18-.48c-1.915 2.623-2.609 4.064-2.688 7.312 2.08 4.47 4.46 6.203 8.758 8.496l1.734.941a667 667 0 0 0 5.633 3q1.95 1.049 3.896 2.1 2.994 1.618 5.99 3.228a686 686 0 0 1 13.4 7.395l3.465 1.961q3.267 1.854 6.529 3.713l2.95 1.666 2.583 1.469c1.976 1.18 1.976 1.18 4.062 1.031-2.86 3.108-5.605 5.077-9.34 7.031l-3.192 1.69-3.405 1.779a3969 3969 0 0 0-7.043 3.742l-1.788.95c-5.717 3.048-11.36 6.215-16.982 9.433l-2.574 1.467c-8.266 4.228-8.266 4.228-14.238 10.846-.713 3.083-.713 3.083.75 5.812 1.788 2.45 1.788 2.45 4.812 4.25 4.214-.322 7.352-1.457 11.027-3.484l2.864-1.565 3.047-1.701 3.2-1.761q4.94-2.73 9.862-5.489l3.03-1.694c5.719-3.205 11.422-6.437 17.118-9.684q4.421-2.512 8.856-5l5.746-3.247 2.69-1.506 2.482-1.408 2.175-1.225c1.951-1.267 3.425-2.438 4.903-4.236.75-3.415.75-3.415 0-7-4.97-4.953-11.074-8.03-17.187-11.375l-3.297-1.825q-3.468-1.92-6.942-3.831a3965 3965 0 0 1-14.27-7.905 3829 3829 0 0 0-6.94-3.845c-4.688-2.595-9.366-5.192-13.966-7.942l-1.956-1.162a476 476 0 0 1-4.743-2.892c-4.095-1.855-7.311-2.236-11.011.465"/><path fill="rgb(19,132,242)" d="m394.813 193.75 2.08-.062c5.086-.039 8.639.821 13.107 3.312 1.418 1.945 1.418 1.945 2.188 4.125l.921 2.39L414 206a216 216 0 0 0 1.938 4.875l.84 2.18c2.98 4.744 9.122 6.149 14.16 7.945 3.914 1.404 7.678 2.805 11.394 4.688 3.544 1.743 4.895 1.473 8.668.312q2.417-1.261 4.813-2.562c4.797-2.453 8.851-3.956 14.187-2.438 3.081 1.96 5.486 4.368 8 7l2.02 1.953c5.79 5.614 5.79 5.614 6.418 10.36 0 5.445-2.692 9.75-5.223 14.44-1.875 5.01-.89 8.558 1.055 13.423l1.543 3.137c2.328 4.817 4.37 9.612 6.132 14.664 3.054 5.857 10.008 6.79 15.84 8.644 3.454 1.482 4.353 2.218 6.215 5.379.644 3.955.51 7.935.5 11.938l.086 3.287c.02 7.877.02 7.877-2.672 11.869-3.284 2.148-6.287 3.325-10.039 4.469-4.78 1.46-7.167 2.242-9.875 6.437a74 74 0 0 0-1.973 4.625l-1.037 2.64-1.053 2.735q-1.046 2.688-2.097 5.375l-.926 2.398C482 358 482 358 480.88 360.093c-1.491 3.228-.706 5.498.119 8.907q1.237 2.49 2.563 4.938c2.507 4.861 3.49 7.624 2.437 13.062-1.994 3.035-4.415 5.465-7 8l-1.777 1.988c-3.686 4.037-6.557 6.532-12.223 7.012-4.231-1.225-8.255-3.003-12.078-5.187-4.126-2.016-6.212-2.048-10.656-.579-3.51 1.486-6.919 3.167-10.333 4.859-3.48 1.633-7.132 2.748-10.796 3.887-3.863 1.844-4.911 4.384-6.313 8.332q-1.135 3.685-2.25 7.375c-1.976 4.158-3.394 5.393-7.574 7.313-3.374.52-6.655.515-10.062.438l-2.682.021c-4.837-.047-8.444-.166-12.256-3.459-2.027-2.696-2.938-4.713-3.648-8.016-1.115-4.963-2.2-8.547-6.492-11.413-5.224-2.701-10.69-4.793-16.255-6.678a91 91 0 0 1-5.048-1.895c-4-1.578-5.817-2.205-10.069-1.014l-3.175 1.766c-5.347 2.898-9.468 4.961-15.563 3.438-7.364-3.551-13.64-10.747-16.75-18.188 0-5.63 2.184-9.625 4.941-14.375 1.904-4.72 1.56-8.82-.332-13.457a207 207 0 0 0-1.859-3.98c-2.175-4.604-3.947-8.858-5.187-13.813-.967-2.583-1.798-3.948-4.228-5.303-3.458-1.506-6.974-2.644-10.585-3.72-3.7-1.334-5.379-2.282-7.75-5.352-1.427-4.282-1.224-8.39-1.25-12.875l-.062-2.723c-.051-8.549-.051-8.549 3.312-12.402 1.945-1.223 1.945-1.223 4.125-2.062l2.39-.981q2.48-.955 4.97-1.883l2.39-.949 2.18-.805c4.36-2.959 5.678-9.062 7.445-13.82 1.24-3.338 2.504-6.509 4.121-9.684 1.847-3.772 2.235-6.76 1.379-10.816a132 132 0 0 0-4.785-9.754c-1.539-4.111-1.532-6.05-.215-10.246 2.048-2.755 4.428-5.042 6.938-7.375l1.958-1.902c4.147-3.987 6.5-6.16 12.553-6.16 4.516.774 8.392 3.081 12.403 5.222 4.891 1.888 8.262.648 12.918-1.273 2.07-.918 4.125-1.863 6.18-2.811 2.957-1.357 5.742-2.615 8.882-3.49 2.676-.757 4.116-1.305 6.168-3.211 1.684-3.244 2.856-6.662 3.887-10.162 1.417-4.706 2.724-7.178 7.113-9.838 3.727-1.5 7.842-1.22 11.813-1.25m-38.563 84.875C347.376 289.488 342.722 303.006 344 317c2.18 14.69 8.79 26.878 20.637 36.04 12.492 8.375 25.55 11.664 40.488 8.897 13.865-3.435 24.34-10.325 32.27-22.175 7.238-12.452 9.567-25.266 6.921-39.418-3.684-12.844-10.966-24.69-22.828-31.457-22.773-12.03-47.036-9.11-65.238 9.738"/><path fill="rgb(19,132,242)" d="M0 316h262l2 13c3.483 6.635 7.06 10.986 14 14l2.266.367c2.852.476 4.373.907 6.734 2.633 3.518 5.492 7.108 12.99 6.93 19.602-1.299 3.35-3.128 6.29-4.93 9.398a137218 137218 0 0 1-115.12.111q-19.182.015-38.364.043-19.688.028-39.375.034-12.146.004-24.29.028-9.318.016-18.637.01-3.818 0-7.637.012c-3.478.01-6.956.008-10.434.003l-3.045.017C22.155 375.216 14.346 374.053 7 367c-13.542-15.573-7-23.909-7-51M157 390h80c5.816 13.96 5.816 13.96 8.313 21.125l.798 2.242C248 418.744 248 418.744 248 421l3.608-.063c4.42-.073 8.841-.119 13.262-.157a756 756 0 0 0 5.738-.082c2.75-.048 5.5-.071 8.251-.089l2.59-.062c5.93-.002 5.93-.002 9.064 2.294 1.943 2.822 2.417 4.734 2.487 8.159-1.374 2.879-2.75 4.75-5 7a79 79 0 0 1-7.085.267l-2.236.014c-2.486.013-4.972.011-7.458.01q-2.666.009-5.33.02c-4.838.018-9.674.022-14.511.024-4.034.001-8.067.009-12.1.016q-14.272.023-28.543.02c-9.823-.002-19.647.02-29.47.051q-12.638.038-25.277.036c-5.036 0-10.072.005-15.108.026q-7.103.029-14.207.005-2.61-.003-5.22.015a547 547 0 0 1-7.116-.01l-2.095.032c-3.286-.048-4.994-.338-7.648-2.338-2.22-3.044-2.463-5.458-2.596-9.188 1.102-3.398 1.921-3.947 5-6 1.88-.24 1.88-.24 4.012-.227h2.427l2.604.032 2.678.008c2.822.011 5.644.037 8.466.062q2.87.016 5.74.027 7.037.035 14.073.098l1-6zM416.895 284.2c6.835 5.845 12.052 13.743 13.105 22.8.821 11.173-1.875 20.286-9 29-5.948 6.269-13.384 10.564-22.066 11.238-10.766.229-19.655-1.564-28.153-8.476-3.242-3.207-5.58-6.786-7.781-10.762l-1.035-1.828c-3.775-8.076-3.107-18.654-.527-26.985 4.194-9.82 11.26-15.69 20.765-20.128 11.938-4.519 24.435-2.176 34.692 5.14"/></svg>