<svg xmlns="http://www.w3.org/2000/svg" width="363" height="363"><path fill="rgb(19,132,242)" d="m158.33.87 3.448-.009 3.753.006 3.823-.003q4.01 0 8.02.006 5.15.006 10.3-.004 4.898-.004 9.795.001l3.753-.006 3.448.01 3.053.002C210 1 210 1 211 2c2.855.4 5.697.752 8.563 1.062l2.443.276q2.996.336 5.994.662v1l1.977.586c3.798 1.131 7.583 2.264 11.336 3.539 2.648.925 2.648.925 5.312 1.375 2.404.506 4.236 1.312 6.375 2.5v2h4v2l7 1v2h3v2l1.625.375L271 23l3.125.812C277 25 277 25 278.375 27.125L279 29h3v2l5 1v2h2v2h3v2l4 1v2h2v2l1.75.812c2.306 1.217 4.27 2.491 6.25 4.188v2h2l1 2h2l.375-1.938L312 48l2-1c.652-2.025.652-2.025 1-4h2l.313-1.688c.819-2.756 2.184-4.87 3.687-7.312l1-3h2v-4h2l.438-2.375C327 22 327 22 328 20h3v4h2v5h2l.332 1.941c.757 4.127 1.498 8.033 3.23 11.871 1.265 2.803 1.98 5.168 2.438 8.188h1q.759 3.091 1.5 6.187l.844 3.481c.571 2.9.789 5.393.656 8.332h2v7h2l1 13h2v7h2v8h2l.402 3.43.536 4.445.263 2.262c.432 4.058.432 4.058 1.799 7.863.31 2.591.51 5.184.719 7.785.048 2.186.048 2.186 1.281 3.215.072 2.02.084 4.042.063 6.062l-.028 3.348L361 145h2q.034 11.123.052 22.244.007 5.163.023 10.328.017 5.931.023 11.862l.015 3.762v3.458l.007 3.062C363 202 363 202 362 203a145 145 0 0 0-.562 6.062l-.254 3.348L361 215h-2l.188 2.687c.036 5.906-1.752 11.627-3.188 17.313h-2v6h-2v4h-2l-1 9h-1l-1 5h-2l-.875 3.437L343 266l-2 1c-.652 2.025-.652 2.025-1 4h-2v3h-2l-.25 1.562c-1.071 3.483-2.885 6.31-4.75 9.438h-2l-.937 2.375C327 290 327 290 326 292h-2v2h-2l-.937 2.375C320 299 320 299 319 301h-2v2c-2.375 2.625-2.375 2.625-5 5h-2v2c-2.375 2.625-2.375 2.625-5 5h-2v2l-4 1v2h-3v2h-2v2c-2.561 2.296-3.48 3-7 3v2h-2v2l-5 1v2h-3v2c-2.234 2.234-3.95 2.921-6.875 4.062l-2.617 1.036A54 54 0 0 1 261 343v2q-1.903.758-3.812 1.5l-2.145.844C253 348 253 348 250 348v2h-5v2l-1.687.332c-4.686.974-9.006 2.24-13.45 4.004-2.574.917-5.159 1.326-7.863 1.664v1l-1.912.152c-2.843.231-5.684.477-8.525.723l-3.01.238-2.862.254-2.65.222L201 361l-1 2h-36v-2l-22-2v-2l-3.062.187c-3.647-.173-5.727-.828-8.961-2.386-3.822-1.549-7.927-2.108-11.977-2.801v-2h-4v-2l-2.062-.375c-3.366-.716-6.638-1.654-9.938-2.625v-2l-1.687-.313c-2.77-.823-4.84-2.192-7.313-3.687-2.31-1.064-4.647-2.031-7-3v-2l-2.187-.813c-2.81-1.186-5.297-2.462-7.813-4.187v-2l-2.375-.938C71 325 71 325 69 324v-2h-2v-2h-2v-2l-2.187-.125C58.77 316.617 57.567 314.33 55 311l-2-1v-2h-2c-1.473-1.39-1.473-1.39-3.062-3.25l-1.598-1.828C45 301 45 301 44.504 298.828L44 297l-3-1v-2h-2l-2-5h-2c-2.257-2.814-4.086-5.945-6-9l-1.727-2.719C23 270.395 23 270.395 23 267h-2v-3h-2l-1-7h-2v-4h-2v-5h-2l-1-9H9c-1.591-4.177-2.213-7.532-2-12H5c-.917-5.385-1.111-10.542-1-16H2c-.819-9.485-1.159-18.872-1.13-28.386.005-2.112 0-4.224-.007-6.337C.86 167.472 1.242 158.777 2 150h2l-.187-3.75C3.783 140.252 5.37 134.733 7 129h2l-.125-2.688c.126-3.346.804-5.282 2.125-8.312.369-1.66.713-3.325 1-5h2v-3h2l-.25-2c.302-3.626 1.561-5.97 3.277-9.133C20.133 96.865 20.133 96.865 21 94h2v-2h2l.375-2.813C26 86 26 86 28 83h2v-3h2l.938-2.375C34 75 34 75 35 73h2l.813-2.25c1.14-2.64 2.28-4.606 4.187-6.75h2v-2h2l1-3h2l.313-1.813c.785-2.5 1.656-3.562 3.687-5.187h2v-2h2v-2h3l1-3h2v-2h2v-2h2v-2c4.385-3 4.385-3 7-3v-2c4.385-3 4.385-3 7-3v-2h3v-2h3v-2l6-1v-2h3v-2l3.25-1.375c2.044-.868 3.983-1.752 5.938-2.813C107 15 107 15 111 15v-2h4v-2c.957-.2.957-.2 1.934-.402l2.504-.536 2.496-.527c2.043-.343 2.043-.343 3.066-1.535a100 100 0 0 1 5 0V6h6V4l3.465-.402 4.473-.536 2.287-.263C150.73 2.253 153.802.874 158.33.87"/><path fill="#fdfefd" d="m328 42 .848 2.66c1.045 3.03 2.262 5.863 3.59 8.778C335.423 60.482 336.703 67.492 338 75q.49 2.502 1 5h2c1.292 4.12 2.263 7.668 2 12h2l.367 3.55.508 4.763.238 2.322c.56 5.193 1.388 10.289 2.352 15.421.985 5.421 1.785 10.87 2.598 16.319l.525 3.422c1.846 12.363 2.606 24.582 2.6 37.078l.001 3.77c-.064 11.52-.916 22.91-2.189 34.355h-2l.188 2.75c-.214 3.692-.99 4.436-3.188 7.25-.72 3.151-.72 3.151-1 6h-2l-.41 2.195c-2.215 10.53-7.396 18.52-13.484 27.177-.96 1.412-1.83 2.884-2.684 4.362-1.487 2.37-2.967 3.859-5.11 5.641-3.568 2.997-7.026 6.085-10.453 9.242C310 279 310 279 307.83 279.507L306 280l-1 3-5 1v2l-7 1v2h-4v2c-15.616 5.311-15.616 5.311-22 5v2c-9.402 2.582-18.593 4.313-28.352 4.633l-3.161.115c-20.8.637-41.64.273-62.447.156-32.569-.194-32.569-.194-65.04 2.096v-2c2.709-1.354 5.01-1.065 8-1v-2c6.986-2.29 13.65-4.424 21-5v-2l3.465-.84q2.236-.548 4.472-1.098l2.288-.552c3.688-.648 3.688-.648 6.775-2.51 2-.04 4-.043 6 0v-2l2.012-.586 2.675-.789 2.637-.773c2.67-.807 2.67-.807 5.145-1.883 2.776-1.063 5.415-1.6 8.344-2.094l2.957-.508L186 279v-2l3.563-1.312C195.32 273.52 200.73 271.189 206 268l2.18-.777c3.767-1.633 6.954-3.89 10.32-6.223 7.81-5.412 7.81-5.412 12.5-7v-2c2.962-2.172 5.507-3.836 9-5v-2c1.54-1.297 1.54-1.297 3.625-2.75 2.832-2.039 5.336-4.104 7.75-6.625L254 233h2v-2h2v-2h2l.676-1.64c1.745-3.11 4.078-5.538 6.512-8.11l2.996-3.23q2.423-2.6 4.851-5.196c6.156-6.773 11.143-14.506 14.965-22.824h2l3-9h2l.39-1.746c.607-2.242 1.397-4.205 2.36-6.316l1.066-2.38a232 232 0 0 1 2.524-5.273c2.865-5.92 4.336-10.703 4.66-17.285l-1.61 3.324-2.14 4.363-1.055 2.186c-2.04 4.135-4.218 7.575-7.195 11.127q-1.515 2.49-3 5c-27.796 39.599-27.796 39.599-44 45v2c-6.117 5.272-13.259 9.568-20 14l-2.248 1.494-2.127 1.381-1.898 1.242C221 238 221 238 218 238v2l-2.992 1.46-3.883 1.915-1.973.96c-2.734 1.354-4.98 2.493-7.152 4.665-6.5 2.837-13.165 5.124-20 7q-2.005.768-4 1.563c-3.626 1.406-7.135 1.964-11 2.437l-1 1c-1.666.04-3.334.043-5 0v2l-3.062.375c-3.77.598-7.292 1.542-10.938 2.625a3775 3775 0 0 1-10.625 3.125l-2.812.84-2.727.793-2.452.723c-2.529.55-4.804.61-7.384.519v2l-1.877.335q-4.28.769-8.56 1.54l-2.952.527c-5.277.953-10.508 1.983-15.72 3.254-2.868.522-5.125.2-7.891-.656-1.562-1.375-1.562-1.375-3-3a791 791 0 0 0-5-3c-4.233-2.963-7.522-6.455-10-11v-3h-2v-3h-2v-4h-2a1019 1019 0 0 1-1.437-5.937c-.4-1.654-.4-1.654-.81-3.34-4.185-20.667-2.654-43.553 6.872-62.536l1.064-2.12C68.784 172.086 72.517 167.023 77 162l1.848-2.207C82.27 155.737 85.736 152.173 90 149h2v-2a98 98 0 0 1 6.375-4.375l1.926-1.229c4.344-2.71 8.658-4.878 13.515-6.544 2.268-.792 2.268-.792 4.356-2.32 3.998-2.165 8.076-2.82 12.516-3.657q2.568-.501 5.136-1.008l2.284-.434c1.966-.372 1.966-.372 3.892-1.433 3.086-.39 6.154-.719 9.25-1l2.916-.27c8.295-.71 16.576-.965 24.897-1.168 11.444-.29 22.513-1.29 33.791-3.214 3.371-.547 6.755-.946 10.146-1.348v-2l3.516-.664c8.62-1.718 16.246-3.648 24.004-7.969C254.08 106.405 256.9 105 261 105v-2l2.375-1.125c18.488-9.33 34.564-22.352 47.918-38.11L313 62h2l.75-2.062c1.492-3.507 3.318-6.654 5.25-9.938h2l.313-2.312C323.92 45.31 325.007 42 328 42"/></svg>