<svg xmlns="http://www.w3.org/2000/svg" width="512" height="512"><path fill="rgb(19,132,242)" d="m105.625-.437 3.643-.03C131.83-.254 154.883 8.2 172 23l2.902 2.465c19.604 17.033 33.243 42.095 35.4 68.181.134 3.707.164 7.395.136 11.104l-.008 3.947c-.126 9.056-1.169 17.336-3.653 26.03-.77 3.243-.86 4.262.223 7.273 1.15 1.603 1.15 1.603 2.66 3.056.85.87.85.87 1.72 1.757l1.906 1.9 2.013 2.043c2.235 2.263 4.48 4.516 6.726 6.769q2.404 2.425 4.804 4.854c4.356 4.4 8.723 8.79 13.092 13.176q4.093 4.11 8.181 8.221c7.549 7.59 15.1 15.177 22.663 22.753l1.466 1.47 1.47 1.472 2.948 2.954 1.478 1.48a8448 8448 0 0 1 23.649 23.805q12.121 12.24 24.296 24.425c4.558 4.562 9.106 9.131 13.635 13.72q6.39 6.473 12.843 12.881a594 594 0 0 1 4.701 4.747 508 508 0 0 0 6.447 6.438l1.853 1.934c3.366 3.249 3.366 3.249 7.794 4.31 2.282-.24 4.425-.633 6.655-1.165l3.117-.5 2.758-.5c29.737-5.044 58.052-.53 82.875 16.875 23.06 17.543 39.141 42.12 43.25 71.125 2.502 36.68 2.502 36.68-6.687 49.375-3.598 3.435-7.43 4.446-12.313 4.625-8.448-1.16-13.35-6.607-19.004-12.523l-4.23-4.302c-1.96-1.998-3.905-4.01-5.85-6.023a2001 2001 0 0 0-10.252-10.514q-2.73-2.784-5.432-5.592C439.542 398.15 432.65 393.639 420 393c-7.162.35-13.449 3.58-19 8-5.48 6.113-7.563 12.282-8.312 20.375 1.224 14.21 9.808 22.449 19.64 31.973l5.36 5.271q4.181 4.1 8.38 8.182c2.723 2.65 5.43 5.316 8.135 7.984l2.538 2.44c5.285 5.24 9.075 9.773 9.36 17.533-1.035 5.144-2.281 8.882-6.663 11.992-17.298 8.87-42.62 7.902-60.852 2.45-1.183-.397-2.367-.792-3.586-1.2l-3.523-1.168c-27.423-9.876-48.64-30.136-61.227-56.27-10.197-23.757-10.145-49.72-4.25-74.562.592-2.363.592-2.363 0-5-1.791-2.56-3.986-4.682-6.203-6.872l-2.023-2.057c-2.247-2.279-4.512-4.54-6.778-6.801a4009.548 4009.548 0 0 0-18.018-18.128q-5.506-5.517-11.002-11.044-12.23-12.285-24.49-24.54c-.737-.735-.737-.735-1.487-1.486l-1.488-1.487a7408 7408 0 0 1-23.815-23.93 7531 7531 0 0 0-24.459-24.562c-4.588-4.587-9.167-9.18-13.728-13.794q-6.436-6.506-12.935-12.947a602 602 0 0 1-4.734-4.772 514 514 0 0 0-6.494-6.47l-1.866-1.944c-3.386-3.265-3.386-3.265-7.838-4.328-2.276.24-4.417.634-6.642 1.162l-2.835.389-2.4.365c-31.132 4.6-58.93.452-85.027-17.7C18.632 172.717 6.396 148.943.41 121.275-1.5 106.033-2.719 83.75 7 71c2.29-2.812 4.153-3.61 7.688-4.375l2.449-.586c6.573-.09 10.885 2.669 15.484 7.062q2.534 2.566 5.031 5.169l4.125 4.189c1.914 1.948 3.816 3.907 5.717 5.867q4.98 5.13 9.992 10.228a825 825 0 0 1 5.296 5.44C69.992 111.348 77.319 118.174 88 119c9.092-.028 17.261-2.76 24-9 5.989-7.648 8.012-15.364 7-25-3.69-16.373-22.47-29.526-33.887-40.791a3541 3541 0 0 1-7.261-7.197l-2.254-2.213c-8.213-8.173-8.213-8.173-8.996-13.518.08-9.505.08-9.505 3.398-13.281C79.667-.71 93.313-.378 105.625-.437"/><path fill="rgb(19,132,242)" d="M160 266c5.279 4.41 10.196 9.058 15.047 13.933l2.338 2.338q3.792 3.796 7.58 7.596l5.283 5.288q6.93 6.936 13.854 13.878 7.077 7.091 14.158 14.178Q232.134 337.1 246 351a200 200 0 0 1-12.052 13.192l-1.753 1.763q-2.882 2.892-5.768 5.78l-4.156 4.17q-5.625 5.644-11.257 11.281l-7.043 7.054q-11.028 11.05-22.065 22.092-12.717 12.725-25.416 25.468-9.834 9.867-19.685 19.717a7723 7723 0 0 0-11.739 11.765q-5.515 5.539-11.049 11.058a1444 1444 0 0 0-4.038 4.052c-8.57 8.63-16.51 16.502-28.291 20.42l-3.551 1.208c-13.4 4.188-29.25 3.532-42.137-2.02l-2.582-.992c-15.13-6.528-25.179-20.622-31.395-35.317C-2.605 458.173-1.61 441.024 4 428l.992-2.582c5.669-13.138 19.103-23.656 29.108-33.632l4.143-4.143q5.569-5.567 11.142-11.13 5.844-5.835 11.684-11.675 11.035-11.03 22.077-22.056Q95.725 330.22 108.3 317.65 134.146 291.82 160 266m-11.192 78.788-2.708 2.687a2121 2121 0 0 0-7.288 7.278q-3.046 3.048-6.1 6.09-7.2 7.181-14.382 14.38-7.397 7.413-14.824 14.796-6.39 6.357-12.757 12.734a2642 2642 0 0 1-7.608 7.591c-2.833 2.815-5.65 5.647-8.466 8.48l-2.541 2.511c-4.737 4.798-8.517 8.934-9.42 15.853.693 5.632 3.055 9.076 7.286 12.812 3.628 2.291 6.606 2.114 10.84 1.68 7.036-2.214 12.098-8.328 17.147-13.392l2.678-2.663q3.614-3.599 7.22-7.209 3.017-3.017 6.04-6.03 7.128-7.112 14.242-14.238 7.332-7.337 14.683-14.655 6.323-6.297 12.63-12.61 3.761-3.764 7.533-7.518c2.805-2.79 5.597-5.591 8.388-8.394l2.517-2.494c7.089-7.055 7.089-7.055 9.52-16.477-.188-4.265-1.628-6.746-4.438-10-3.832-3.31-6.68-4.445-11.777-4.531-7.74 1.85-13.014 7.889-18.415 13.32M470.75-.312l2.484-.114C479.895.6 484.702 5.251 489.266 9.867l1.697 1.689a797 797 0 0 1 3.509 3.525c1.777 1.793 3.57 3.57 5.364 5.345q1.716 1.719 3.43 3.441l1.61 1.592c4.318 4.4 7.526 8.92 7.687 15.229-.2 4.049-1.042 6.698-3.047 10.21l-1.654 2.914L506 57l-2 3.436c-2.251 3.845-4.53 7.674-6.812 11.502l-2.508 4.214a3650 3650 0 0 1-22.745 37.679 1110 1110 0 0 0-4.083 6.74q-1.066 1.764-2.133 3.527l-1.92 3.191c-2.897 4.366-5.755 7.03-10.799 8.711-6.032.591-10.094-.625-15-4-2.824-2.53-5.445-5.2-8-8-5.756 4.784-11.053 9.917-16.332 15.218l-2.752 2.752q-3.705 3.706-7.405 7.418-3.88 3.887-7.764 7.771a29208 29208 0 0 0-14.672 14.694q-8.356 8.37-16.716 16.737A93741 93741 0 0 0 330 223c-3.322-1.577-5.523-3.28-8.126-5.899l-2.426-2.426c-.854-.865-1.708-1.73-2.589-2.62l-2.673-2.682a3619 3619 0 0 1-7.003-7.053c-2.383-2.403-4.772-4.8-7.16-7.199Q293.004 188.067 286 181c1.382-3.107 2.975-5.225 5.376-7.623l2.115-2.128 2.32-2.303 2.445-2.45c2.673-2.677 5.353-5.346 8.033-8.016q2.793-2.79 5.584-5.582 5.859-5.857 11.727-11.704 6.76-6.736 13.507-13.486 6.51-6.512 13.029-13.016l5.523-5.518a6692 6692 0 0 1 7.754-7.732l2.283-2.285c4.062-4.038 8.211-7.91 12.563-11.636 2.366-2.067 4.554-4.266 6.741-6.521-1.754-3.788-4.094-6.829-6.66-10.098-2.7-3.832-2.649-7.348-2.34-11.902 2.717-7.547 8.955-11.159 15.602-15.047l1.896-1.117q2.013-1.185 4.03-2.362c3.597-2.1 7.182-4.218 10.769-6.333l2.211-1.303c7.159-4.22 14.27-8.517 21.367-12.838l1.746-1.062c5.681-3.454 11.355-6.92 17.016-10.407l2.553-1.57q2.289-1.41 4.573-2.828C462.2 1.4 465.538-.16 470.75-.312"/></svg>