<svg xmlns="http://www.w3.org/2000/svg" width="512" height="512"><path fill="rgb(19,132,242)" d="M0 200h512c0 236.023 0 236.023-16.02 254.305-4.44 4.364-9.482 7.254-14.98 10.07l-1.977 1.013c-10.333 4.996-20.621 4.9-31.824 4.873l-5.148.011c-4.701.01-9.403.008-14.104.004-5.076-.002-10.152.007-15.228.014q-14.907.018-29.816.012-12.117-.002-24.236.005l-3.486.001-7.01.004q-32.862.014-65.726.003c-20.038-.006-40.076.006-60.115.025q-30.87.03-61.743.024c-11.553-.002-23.105 0-34.658.014q-14.75.019-29.503.002-7.524-.011-15.048.005-6.892.014-13.786-.007-2.488-.004-4.976.008c-17.92.08-34.157-4.025-47.37-16.89C-41.377 390.57 0 284.651 0 200m135.688 70.438c-2.566 3.896-2.814 7.143-2.85 11.751l-.028 3.138-.013 3.384-.017 3.514q-.014 3.69-.02 7.379c-.01 3.722-.04 7.444-.072 11.166-.091 19.93.637 37.319 15 52.605 11.587 10.798 23.97 15.276 39.667 14.91C201.235 377.2 212.508 371.02 222 361c7.305-8.772 12.073-18.645 12.177-30.142l.039-3.763q.013-2.028.022-4.056l.013-2.072q.03-5.428.044-10.856c.011-3.728.046-7.455.085-11.183.027-2.876.035-5.751.038-8.627q.008-2.061.035-4.122c.375-9.973.375-9.973-4.453-18.179-3.42-2.41-5.951-3.247-10.062-2.937-3.861.679-6.176 2.093-8.938 4.937-1.97 3.183-2.258 5.645-2.287 9.36l-.04 3.248-.017 3.497-.044 3.618c-.047 3.821-.08 7.643-.112 11.464q-.063 7.523-.156 15.043l-.016 3.467c-.125 10.146-.888 18.812-8.328 26.303-6.691 5-13.852 5.948-22 5-6.514-2.134-11.327-5.213-15-11-3.351-7.238-3.412-14.28-3.371-22.137l-.053-7.623a4022 4022 0 0 1-.012-11.929c-.003-3.858-.03-7.715-.06-11.573l.025-3.599c-.057-6.31-.147-10.413-4.529-15.139-7.256-4.631-13.301-3.899-19.312 2.438m133-.813c-2.49 3.505-3.219 7.108-2.688 11.375 2.94 6.024 6.844 10.242 11.61 14.902l2.202 2.19c2.306 2.289 4.622 4.567 6.938 6.846l4.715 4.673Q297.22 315.318 303 321c-3.979 4.786-8.15 9.255-12.605 13.598q-1.865 1.838-3.729 3.677-2.898 2.853-5.806 5.694a1360 1360 0 0 0-5.653 5.566l-1.752 1.696c-3.812 3.787-7.12 7.583-7.705 13.148.474 4.138.917 6.198 3.563 9.558 4.37 3.354 7.051 4.74 12.687 4.063 5.385-3.079 9.472-7.212 13.805-11.61l2.194-2.202q3.442-3.464 6.876-6.938l4.688-4.715Q315.289 346.775 321 341c2.974 1.335 5.024 2.788 7.296 5.117l1.882 1.912 2.002 2.06q2.127 2.159 4.254 4.315 3.334 3.4 6.661 6.808c2.147 2.195 4.303 4.38 6.46 6.565l1.989 2.056c3.542 3.58 6.653 6.358 11.456 8.167 4.978 0 7.122-.464 11.375-3.062 3.034-3.395 4.761-6.313 4.625-10.938-2.125-6.554-5.833-10.293-10.766-14.98l-4.632-4.526a3766 3766 0 0 0-7.316-7.05c-2.36-2.277-4.707-4.569-7.052-6.862l-2.24-2.125c-.672-.657-1.343-1.315-2.034-1.993l-1.81-1.74C342 323 342 323 342.115 321c1.043-2.357 2.228-3.664 4.088-5.447l2.043-1.984 2.219-2.115 4.611-4.5q3.64-3.531 7.302-7.043c2.355-2.264 4.69-4.546 7.024-6.832l2.213-2.09c4.537-4.47 6.6-7.607 7.385-13.988-1.463-5.163-3.324-8.298-8-11-4.395-1.425-6.915-1.532-11.147.544-4.571 2.685-8.07 6.296-11.755 10.065l-2.19 2.203a2075 2075 0 0 0-6.846 6.938l-4.673 4.715Q328.682 296.22 323 302c-3.029-1.353-5.091-2.857-7.404-5.225l-1.952-1.982-2.078-2.137-4.404-4.465a4466 4466 0 0 1-6.905-7.05 2117 2117 0 0 0-6.69-6.797l-2.072-2.137c-4.557-4.69-4.557-4.69-10.495-7.207-5.187 0-8.126 1.683-12.312 4.625M64.795 41.74l5.145-.012c4.7-.01 9.399-.008 14.099-.004 5.073.002 10.147-.007 15.22-.014q14.903-.018 29.806-.012 12.114.002 24.23-.005l3.484-.001 7.008-.004q32.856-.013 65.712-.003c20.031.006 40.062-.006 60.093-.025q30.864-.03 61.727-.024c11.549.002 23.097 0 34.646-.014q14.748-.019 29.495-.002 7.521.011 15.042-.005 6.893-.014 13.785.007 2.486.004 4.972-.008c18.347-.083 33.842 3.78 47.46 16.89C524.799 89.229 512 136.977 512 174H0C0 75.977 0 75.977 16.02 57.695c4.44-4.364 9.482-7.254 14.98-10.07l1.977-1.013c10.331-4.995 20.617-4.9 31.818-4.873M72 112c-3.001 3.376-3.539 6.493-3.352 11.008.773 4.377 3.289 7.106 6.602 9.867 3.693 1.51 6.876 2.013 10.75 1.125 4.295-2.29 7.134-5.274 8.625-9.938.76-4.372-.35-7.247-2.625-11.062-2.69-2.84-4.566-3.869-8.313-5-4.765 0-7.823 1.268-11.687 4m216.625 1.25c-2.059 3.484-2.625 5.688-2.625 9.75 1.271 4.06 2.715 7.082 6.223 9.588 3.15 1.602 5.1 1.791 8.615 1.8l3.539.03 3.855-.014 4.082.02c3.688.019 7.375.018 11.064.012 3.081-.003 6.162.003 9.244.009q10.906.02 21.813.001c7.495-.011 14.99.003 22.486.03q9.66.032 19.322.022c3.845-.003 7.689 0 11.533.017q5.423.022 10.847-.008c1.955-.005 3.91.01 5.865.024 8.56-.06 8.56-.06 15.512-4.531 2.409-2.971 2.965-4.675 3.375-8.5-.54-5.032-2.135-7.356-5.813-10.75-3.98-2.718-7.289-2.876-12.045-2.89l-3.377-.018-3.692-.003-3.899-.015q-5.29-.019-10.58-.024-3.309-.005-6.616-.012-10.357-.02-20.713-.027a7762 7762 0 0 1-23.883-.05q-9.24-.034-18.48-.034-5.514 0-11.028-.025c-4.103-.02-8.206-.015-12.309-.008l-3.673-.028c-7.434.036-13.026.314-18.642 5.634m-159-.25c-3.047 3.75-3.021 7.326-2.625 12 2.252 4.337 4.439 7.134 9 9 3.892.57 7.05.346 10.75-1 3.25-2.888 5.118-5.784 6.25-10 .02-4.042-.775-7.418-3.273-10.645-6.7-6.15-13.45-4.956-20.102.645m58 0c-3.047 3.75-3.021 7.326-2.625 12 2.252 4.337 4.439 7.134 9 9 4.75.528 6.992.475 11.312-1.563 3.283-2.976 4.463-5.185 5.688-9.437 0-4.4-.733-6.572-3.063-10.313-6.75-6.176-13.275-5.613-20.312.313"/></svg>