<?xml version="1.0" standalone="no"?>
<!DOCTYPE svg PUBLIC "-//W3C//DTD SVG 20010904//EN"
 "http://www.w3.org/TR/2001/REC-SVG-20010904/DTD/svg10.dtd">
<svg version="1.0" xmlns="http://www.w3.org/2000/svg"
 width="495.000000pt" height="504.000000pt" viewBox="0 0 495.000000 504.000000"
 preserveAspectRatio="xMidYMid meet">

<g transform="translate(0.000000,504.000000) scale(0.100000,-0.100000)"
fill="#fff" stroke="none">
<path d="M689 4983 c-10 -2 -19 -13 -22 -24 -6 -23 -47 -27 -47 -4 0 17 -18
19 -54 5 -16 -6 -26 -17 -26 -29 0 -24 -39 -39 -51 -20 -7 12 -15 11 -44 -5
-36 -20 -43 -30 -25 -41 21 -13 -11 -36 -40 -30 -35 8 -80 -36 -60 -60 16 -20
-5 -49 -31 -42 -30 8 -67 -65 -38 -75 19 -6 0 -48 -21 -48 -22 0 -25 -4 -35
-47 -5 -26 -3 -33 9 -33 10 0 16 -9 16 -25 0 -18 -5 -25 -20 -25 -17 0 -20 -7
-20 -39 0 -30 4 -40 20 -44 25 -6 29 -57 4 -57 -12 0 -14 -7 -9 -32 10 -44 14
-50 31 -44 22 8 36 -36 17 -51 -22 -17 10 -77 38 -70 12 3 24 -2 34 -16 12
-18 12 -22 -1 -31 -13 -10 -10 -16 16 -41 23 -22 33 -26 42 -17 16 16 48 -12
41 -37 -3 -11 5 -24 21 -35 l26 -16 0 -170 0 -169 48 -3 47 -3 3 -109 c2 -66
-1 -113 -8 -120 -12 -12 -13 -76 -1 -76 5 0 11 -21 14 -47 3 -27 9 -62 12 -80
6 -26 0 -42 -30 -91 -42 -69 -52 -121 -33 -177 13 -39 13 -41 -18 -82 -20 -27
-37 -64 -44 -100 -18 -89 -83 -265 -100 -270 -70 -22 -100 -55 -100 -110 0
-25 86 -279 110 -323 10 -18 79 -40 124 -40 23 0 24 3 19 37 -3 21 -14 45 -24
55 -15 13 -19 30 -19 91 0 41 3 101 6 134 l7 61 69 28 c97 39 219 39 318 -1
l67 -27 7 -67 c12 -130 8 -201 -13 -219 -10 -10 -21 -34 -25 -56 l-5 -39 50 6
c92 11 96 16 155 182 30 82 54 162 54 178 0 56 -38 100 -94 109 -15 2 -29 29
-57 108 -21 58 -40 126 -44 152 -4 30 -19 67 -41 100 -34 50 -35 53 -23 100 6
27 9 61 6 76 -3 15 1 38 8 52 8 14 14 36 15 49 0 14 18 44 46 73 73 78 85 116
83 260 -1 111 2 156 17 226 3 16 11 22 29 22 18 0 25 5 25 20 0 11 3 20 8 20
4 0 45 -39 92 -86 131 -133 202 -174 300 -174 104 0 195 59 378 243 l113 114
55 -5 c36 -3 54 -1 54 7 0 23 30 10 36 -15 4 -15 2 -115 -4 -223 -15 -251 -4
-301 73 -338 70 -33 153 21 172 112 5 22 6 148 2 280 -7 218 -6 241 9 250 44
26 91 84 108 133 16 44 22 52 39 48 11 -3 41 -6 66 -6 l46 0 34 -67 c59 -116
181 -183 308 -169 l56 5 79 -87 c43 -48 104 -114 135 -147 31 -33 133 -143
226 -245 94 -102 174 -190 180 -196 176 -190 311 -337 313 -343 1 -4 -75 -31
-170 -61 -95 -29 -178 -55 -185 -57 -8 -3 -13 13 -15 49 l-3 53 -38 3 c-25 2
-54 15 -84 38 -25 19 -66 40 -90 47 -25 6 -49 20 -54 29 -14 25 -59 24 -66 -2
-3 -11 -14 -20 -24 -20 -31 0 -83 -25 -121 -59 -30 -26 -44 -31 -87 -31 l-51
0 0 -132 c0 -73 -4 -138 -8 -143 -4 -6 -31 -26 -59 -44 -108 -68 -205 -202
-232 -321 -18 -76 -13 -211 9 -282 11 -34 20 -66 20 -70 0 -5 -27 -8 -59 -8
-58 0 -91 -15 -91 -41 0 -25 23 -49 45 -49 l25 0 0 -740 0 -740 -58 0 c-44 0
-63 -5 -75 -18 -23 -25 -21 -48 5 -66 20 -14 111 -16 780 -16 467 0 767 4 782
10 20 7 26 17 26 39 0 37 -23 51 -84 51 l-46 0 0 738 0 737 23 10 c26 12 35
56 14 73 -8 7 -71 12 -167 14 l-153 3 389 274 c352 248 394 275 442 283 105
17 203 90 253 188 34 68 39 214 9 293 -64 171 -256 370 -695 721 -168 135
-414 325 -553 427 -97 71 -101 76 -112 123 -27 125 -100 304 -159 390 -41 62
-118 130 -176 157 l-60 29 -597 0 c-591 0 -598 0 -598 -20 0 -11 -7 -20 -15
-20 -8 0 -20 -9 -27 -20 -12 -18 -24 -20 -145 -20 l-133 0 0 39 c0 42 -17 67
-57 82 -13 5 -23 17 -23 29 0 19 -6 20 -164 20 -164 0 -191 5 -167 34 8 9 3
20 -19 41 -24 23 -32 26 -44 16 -22 -19 -60 3 -47 28 8 15 4 21 -26 35 -31 14
-37 15 -47 2 -14 -19 -58 -3 -50 18 6 17 0 21 -43 31 -26 5 -33 3 -33 -9 0
-11 -9 -16 -30 -16 -23 0 -30 4 -30 20 0 20 -20 24 -61 13z m183 -150 c24 -9
59 -26 78 -37 l35 -21 -175 -5 c-159 -5 -179 -7 -220 -29 -71 -37 -113 -75
-146 -133 -63 -106 -68 -218 -13 -326 22 -44 29 -71 29 -116 l0 -60 -36 35
c-19 18 -51 67 -71 107 -60 120 -57 268 6 386 55 104 179 196 290 217 63 11
172 2 223 -18z m-57 -212 c149 -67 164 -270 26 -361 -36 -25 -55 -30 -102 -30
-71 0 -104 12 -147 53 -60 57 -78 117 -61 196 27 125 167 196 284 142z m2244
-329 c59 -30 94 -83 99 -152 5 -73 -8 -109 -59 -154 -112 -102 -282 -42 -314
111 -14 69 41 169 110 199 43 19 124 17 164 -4z m-1243 -49 c18 -16 34 -36 34
-45 0 -16 11 -18 100 -18 l100 0 0 -94 c0 -52 -4 -97 -9 -100 -5 -3 -12 -22
-15 -42 -6 -28 -11 -34 -24 -29 -9 4 -64 9 -122 12 -104 6 -107 5 -228 -36
l-123 -42 -212 -7 c-198 -7 -214 -9 -244 -30 -17 -12 -37 -38 -43 -57 -7 -21
-18 -35 -28 -35 -9 0 -27 -3 -39 -6 l-23 -6 0 191 0 191 25 0 c18 0 25 -5 25
-19 0 -14 5 -18 20 -14 11 3 20 12 20 19 0 8 9 14 20 14 11 0 20 -7 20 -15 0
-8 9 -15 20 -15 11 0 20 7 20 15 0 9 9 15 25 15 16 0 25 -6 25 -15 0 -8 9 -15
20 -15 11 0 20 7 20 15 0 8 9 15 20 15 11 0 20 -7 20 -15 0 -8 9 -15 20 -15
11 0 20 7 20 15 0 9 10 15 26 15 18 0 25 -4 21 -14 -3 -8 2 -16 14 -19 14 -4
19 0 19 14 0 16 7 19 45 19 38 0 45 3 45 20 0 12 12 26 30 35 35 18 50 43 50
83 0 16 3 32 7 35 3 4 60 7 125 7 115 0 120 -1 154 -27z m505 -83 l40 -21 -3
-122 -3 -122 -46 -8 c-25 -5 -77 -5 -115 0 l-69 8 -3 43 c-2 23 -7 42 -13 42
-5 0 -9 44 -9 100 l0 100 90 0 c72 0 99 -4 131 -20z m93 -43 c16 -12 16 -17 2
-86 -17 -82 -26 -100 -26 -54 0 16 -3 58 -6 92 -7 63 -2 71 30 48z m66 -27
c20 -11 17 -39 -13 -96 -16 -32 -73 -88 -64 -64 3 8 14 50 24 93 10 42 22 77
26 77 5 0 17 -4 27 -10z m-677 -207 c-7 -2 -21 -2 -30 0 -10 3 -4 5 12 5 17 0
24 -2 18 -5z m195 -22 c22 -6 9 -21 -140 -167 -188 -184 -243 -219 -338 -218
-87 1 -156 41 -277 161 -57 56 -103 104 -103 106 0 3 55 8 122 12 134 8 193
20 313 67 44 17 105 34 135 38 69 9 257 10 288 1z m257 -21 c32 -1 37 -3 22
-11 -24 -14 -99 -7 -105 10 -4 10 1 12 19 8 13 -4 42 -7 64 -7z m118 -229 c4
-145 2 -253 -4 -274 -22 -82 -115 -114 -163 -57 -37 44 -41 84 -28 290 6 102
9 197 6 213 -6 27 -6 27 42 27 30 0 63 8 84 19 19 11 40 20 46 20 7 1 13 -75
17 -238z m-923 208 c-14 -6 -81 -15 -150 -20 -177 -14 -186 -17 -225 -51 -31
-27 -35 -28 -35 -10 0 29 32 64 71 78 43 16 377 18 339 3z m-431 -155 c3 -2
-19 -53 -47 -112 -67 -138 -92 -213 -92 -273 0 -31 -8 -61 -21 -84 -12 -20
-23 -34 -25 -32 -7 7 9 137 17 137 13 0 11 64 -1 76 -7 7 -10 54 -8 120 l3
109 48 3 c47 3 47 3 47 38 0 35 0 35 38 28 20 -4 39 -8 41 -10z m-30 -181
c-29 -89 -78 -197 -85 -190 -3 3 -1 23 6 44 19 60 92 224 97 219 3 -3 -5 -35
-18 -73z m49 -123 c-3 -43 -12 -89 -21 -107 -21 -39 -75 -103 -88 -103 -14 0
-10 79 5 103 12 19 64 133 91 202 8 20 8 20 13 0 2 -11 2 -53 0 -95z m-408
-179 c0 -17 -4 -33 -10 -36 -6 -4 -10 8 -10 29 0 20 5 36 10 36 6 0 10 -13 10
-29z m160 -7 c0 -21 -4 -33 -10 -29 -5 3 -10 19 -10 36 0 16 5 29 10 29 6 0
10 -16 10 -36z m110 -39 c0 -14 -8 -29 -21 -35 -29 -16 -33 -7 -14 29 19 37
35 40 35 6z m-14 -72 c-10 -10 -19 5 -10 18 6 11 8 11 12 0 2 -7 1 -15 -2 -18z
m-125 0 c31 -19 59 -68 59 -105 0 -36 -36 -86 -75 -105 -32 -15 -40 -16 -78
-3 -92 32 -114 133 -43 197 41 38 90 44 137 16z m3846 -126 c54 -29 103 -77
131 -131 21 -42 26 -65 26 -126 0 -64 -4 -83 -29 -128 -54 -99 -132 -146 -245
-146 -111 -1 -190 45 -248 144 -24 39 -27 56 -27 130 0 68 5 93 22 126 29 55
79 102 138 131 43 20 61 23 125 20 44 -2 88 -11 107 -20z m-4203 -538 c52 -41
23 -129 -43 -129 -71 0 -101 80 -47 127 33 28 56 29 90 2z m670 10 c73 -34 44
-139 -38 -139 -78 0 -90 116 -16 143 23 8 27 8 54 -4z"/>
<path d="M710 4600 c0 -5 5 -10 10 -10 6 0 10 5 10 10 0 6 -4 10 -10 10 -5 0
-10 -4 -10 -10z"/>
<path d="M745 4601 c-6 -11 9 -23 19 -14 9 9 7 23 -3 23 -6 0 -12 -4 -16 -9z"/>
<path d="M670 4590 c0 -5 5 -10 10 -10 6 0 10 5 10 10 0 6 -4 10 -10 10 -5 0
-10 -4 -10 -10z"/>
<path d="M782 4591 c2 -7 7 -12 11 -12 12 1 9 15 -3 20 -7 2 -11 -2 -8 -8z"/>
<path d="M635 4579 c-10 -15 3 -25 16 -12 7 7 7 13 1 17 -6 3 -14 1 -17 -5z"/>
<path d="M815 4570 c-3 -5 1 -10 9 -10 9 0 16 5 16 10 0 6 -4 10 -9 10 -6 0
-13 -4 -16 -10z"/>
<path d="M600 4550 c0 -5 5 -10 10 -10 6 0 10 5 10 10 0 6 -4 10 -10 10 -5 0
-10 -4 -10 -10z"/>
<path d="M850 4540 c0 -5 5 -10 10 -10 6 0 10 5 10 10 0 6 -4 10 -10 10 -5 0
-10 -4 -10 -10z"/>
<path d="M580 4520 c0 -5 5 -10 10 -10 6 0 10 5 10 10 0 6 -4 10 -10 10 -5 0
-10 -4 -10 -10z"/>
<path d="M870 4510 c0 -5 5 -10 10 -10 6 0 10 5 10 10 0 6 -4 10 -10 10 -5 0
-10 -4 -10 -10z"/>
<path d="M680 4480 c-27 -27 -25 -66 5 -95 30 -30 54 -31 89 -4 50 40 21 119
-44 119 -17 0 -39 -9 -50 -20z"/>
<path d="M560 4480 c0 -5 4 -10 9 -10 6 0 13 5 16 10 3 6 -1 10 -9 10 -9 0
-16 -4 -16 -10z"/>
<path d="M880 4470 c0 -5 5 -10 10 -10 6 0 10 5 10 10 0 6 -4 10 -10 10 -5 0
-10 -4 -10 -10z"/>
<path d="M556 4451 c-4 -5 -2 -12 3 -15 5 -4 12 -2 15 3 4 5 2 12 -3 15 -5 4
-12 2 -15 -3z"/>
<path d="M883 4420 c-1 -11 4 -20 13 -20 8 0 14 9 14 20 0 11 -6 20 -13 20 -7
0 -13 -9 -14 -20z"/>
<path d="M560 4405 c0 -8 5 -15 10 -15 6 0 10 7 10 15 0 8 -4 15 -10 15 -5 0
-10 -7 -10 -15z"/>
<path d="M876 4381 c-4 -5 -2 -12 3 -15 5 -4 12 -2 15 3 4 5 2 12 -3 15 -5 4
-12 2 -15 -3z"/>
<path d="M570 4370 c0 -5 5 -10 10 -10 6 0 10 5 10 10 0 6 -4 10 -10 10 -5 0
-10 -4 -10 -10z"/>
<path d="M590 4336 c0 -9 5 -16 10 -16 6 0 10 4 10 9 0 6 -4 13 -10 16 -5 3
-10 -1 -10 -9z"/>
<path d="M855 4340 c-3 -5 1 -10 9 -10 9 0 16 5 16 10 0 6 -4 10 -9 10 -6 0
-13 -4 -16 -10z"/>
<path d="M616 4311 c-4 -5 -2 -12 3 -15 5 -4 12 -2 15 3 4 5 2 12 -3 15 -5 4
-12 2 -15 -3z"/>
<path d="M830 4310 c0 -5 5 -10 10 -10 6 0 10 5 10 10 0 6 -4 10 -10 10 -5 0
-10 -4 -10 -10z"/>
<path d="M650 4286 c0 -9 5 -16 10 -16 6 0 10 4 10 9 0 6 -4 13 -10 16 -5 3
-10 -1 -10 -9z"/>
<path d="M800 4285 c0 -8 5 -15 10 -15 6 0 10 7 10 15 0 8 -4 15 -10 15 -5 0
-10 -7 -10 -15z"/>
<path d="M680 4270 c0 -5 7 -10 15 -10 8 0 15 5 15 10 0 6 -7 10 -15 10 -8 0
-15 -4 -15 -10z"/>
<path d="M720 4270 c0 -5 7 -10 16 -10 8 0 12 5 9 10 -3 6 -10 10 -16 10 -5 0
-9 -4 -9 -10z"/>
<path d="M760 4270 c0 -5 5 -10 10 -10 6 0 10 5 10 10 0 6 -4 10 -10 10 -5 0
-10 -4 -10 -10z"/>
<path d="M2946 4291 c-4 -5 -2 -12 3 -15 5 -4 12 -2 15 3 4 5 2 12 -3 15 -5 4
-12 2 -15 -3z"/>
<path d="M2985 4289 c-10 -15 3 -25 16 -12 7 7 7 13 1 17 -6 3 -14 1 -17 -5z"/>
<path d="M2910 4276 c0 -9 5 -16 10 -16 6 0 10 4 10 9 0 6 -4 13 -10 16 -5 3
-10 -1 -10 -9z"/>
<path d="M3020 4270 c0 -5 5 -10 10 -10 6 0 10 5 10 10 0 6 -4 10 -10 10 -5 0
-10 -4 -10 -10z"/>
<path d="M2876 4261 c-4 -5 -2 -12 3 -15 5 -4 12 -2 15 3 4 5 2 12 -3 15 -5 4
-12 2 -15 -3z"/>
<path d="M3056 4261 c-4 -5 -2 -12 3 -15 5 -4 12 -2 15 3 4 5 2 12 -3 15 -5 4
-12 2 -15 -3z"/>
<path d="M2840 4230 c0 -5 7 -10 15 -10 8 0 15 5 15 10 0 6 -7 10 -15 10 -8 0
-15 -4 -15 -10z"/>
<path d="M3080 4230 c0 -5 7 -10 15 -10 8 0 15 5 15 10 0 6 -7 10 -15 10 -8 0
-15 -4 -15 -10z"/>
<path d="M2820 4200 c0 -5 7 -10 16 -10 8 0 12 5 9 10 -3 6 -10 10 -16 10 -5
0 -9 -4 -9 -10z"/>
<path d="M3105 4200 c-3 -5 1 -10 9 -10 9 0 16 5 16 10 0 6 -4 10 -9 10 -6 0
-13 -4 -16 -10z"/>
<path d="M2926 4175 c-38 -38 -23 -101 28 -118 60 -20 113 66 70 114 -21 23
-76 25 -98 4z"/>
<path d="M2810 4160 c0 -5 5 -10 10 -10 6 0 10 5 10 10 0 6 -4 10 -10 10 -5 0
-10 -4 -10 -10z"/>
<path d="M3120 4160 c0 -5 5 -10 10 -10 6 0 10 5 10 10 0 6 -4 10 -10 10 -5 0
-10 -4 -10 -10z"/>
<path d="M2806 4131 c-4 -5 -2 -12 3 -15 5 -4 12 -2 15 3 4 5 2 12 -3 15 -5 4
-12 2 -15 -3z"/>
<path d="M3126 4131 c-4 -5 -2 -12 3 -15 5 -4 12 -2 15 3 4 5 2 12 -3 15 -5 4
-12 2 -15 -3z"/>
<path d="M2810 4085 c0 -8 5 -15 10 -15 6 0 10 7 10 15 0 8 -4 15 -10 15 -5 0
-10 -7 -10 -15z"/>
<path d="M3120 4085 c0 -8 5 -15 10 -15 6 0 10 7 10 15 0 8 -4 15 -10 15 -5 0
-10 -7 -10 -15z"/>
<path d="M2820 4050 c0 -5 5 -10 10 -10 6 0 10 5 10 10 0 6 -4 10 -10 10 -5 0
-10 -4 -10 -10z"/>
<path d="M3100 4050 c0 -5 7 -10 15 -10 8 0 15 5 15 10 0 6 -7 10 -15 10 -8 0
-15 -4 -15 -10z"/>
<path d="M2840 4020 c0 -5 7 -10 16 -10 8 0 12 5 9 10 -3 6 -10 10 -16 10 -5
0 -9 -4 -9 -10z"/>
<path d="M3080 4020 c0 -5 7 -10 16 -10 8 0 12 5 9 10 -3 6 -10 10 -16 10 -5
0 -9 -4 -9 -10z"/>
<path d="M2875 3999 c-10 -15 3 -25 16 -12 7 7 7 13 1 17 -6 3 -14 1 -17 -5z"/>
<path d="M3050 3990 c0 -5 7 -10 15 -10 8 0 15 5 15 10 0 6 -7 10 -15 10 -8 0
-15 -4 -15 -10z"/>
<path d="M2906 3981 c-4 -5 -2 -12 3 -15 5 -4 12 -2 15 3 4 5 2 12 -3 15 -5 4
-12 2 -15 -3z"/>
<path d="M3026 3981 c-4 -7 -5 -15 -2 -18 9 -9 19 4 14 18 -4 11 -6 11 -12 0z"/>
<path d="M2946 3971 c-4 -5 -2 -12 3 -15 5 -4 12 -2 15 3 4 5 2 12 -3 15 -5 4
-12 2 -15 -3z"/>
<path d="M2980 3971 c0 -6 5 -13 10 -16 6 -3 10 1 10 9 0 9 -4 16 -10 16 -5 0
-10 -4 -10 -9z"/>
<path d="M4446 2923 c-12 -12 -6 -33 9 -33 8 0 15 6 15 14 0 17 -14 28 -24 19z"/>
<path d="M4505 2921 c-8 -15 3 -31 21 -31 9 0 14 7 12 17 -4 20 -24 28 -33 14z"/>
<path d="M4380 2891 c0 -12 6 -21 16 -21 9 0 14 7 12 17 -5 25 -28 28 -28 4z"/>
<path d="M4565 2901 c-8 -15 3 -31 21 -31 9 0 14 7 12 17 -4 20 -24 28 -33 14z"/>
<path d="M4324 2859 c-3 -6 -2 -15 2 -19 12 -12 38 5 30 19 -9 14 -23 14 -32
0z"/>
<path d="M4620 2856 c0 -8 4 -17 9 -20 11 -7 33 18 24 27 -12 12 -33 7 -33 -7z"/>
<path d="M4287 2823 c-4 -3 -7 -12 -7 -20 0 -15 26 -18 34 -4 7 11 -18 33 -27
24z"/>
<path d="M4660 2806 c0 -10 9 -16 21 -16 24 0 21 23 -4 28 -10 2 -17 -3 -17
-12z"/>
<path d="M4430 2792 c-66 -33 -88 -125 -44 -186 25 -33 88 -59 126 -51 44 10
86 52 98 96 10 35 8 47 -10 84 -33 69 -101 92 -170 57z"/>
<path d="M4252 2748 c7 -19 38 -22 38 -4 0 10 -9 16 -21 16 -12 0 -19 -5 -17
-12z"/>
<path d="M4690 2745 c0 -10 7 -15 18 -13 21 4 19 22 -2 26 -10 2 -16 -3 -16
-13z"/>
<path d="M4244 2689 c-10 -17 13 -36 27 -22 12 12 4 33 -11 33 -5 0 -12 -5
-16 -11z"/>
<path d="M4702 2683 c5 -25 28 -28 28 -4 0 12 -6 21 -16 21 -9 0 -14 -7 -12
-17z"/>
<path d="M4254 2629 c-10 -17 13 -36 27 -22 12 12 4 33 -11 33 -5 0 -12 -5
-16 -11z"/>
<path d="M4697 2633 c-4 -3 -7 -12 -7 -20 0 -15 26 -18 34 -4 7 11 -18 33 -27
24z"/>
<path d="M4287 2573 c-13 -12 -7 -33 8 -33 8 0 15 9 15 20 0 20 -11 26 -23 13z"/>
<path d="M4664 2569 c-10 -17 13 -36 27 -22 12 12 4 33 -11 33 -5 0 -12 -5
-16 -11z"/>
<path d="M4324 2519 c-10 -17 13 -36 27 -22 12 12 4 33 -11 33 -5 0 -12 -5
-16 -11z"/>
<path d="M4623 2515 c-7 -20 2 -29 21 -22 9 4 13 13 10 22 -8 19 -23 19 -31 0z"/>
<path d="M4376 2481 c-7 -11 18 -33 27 -24 4 3 7 12 7 20 0 15 -26 18 -34 4z"/>
<path d="M4566 2481 c-7 -11 18 -33 27 -24 4 3 7 12 7 20 0 15 -26 18 -34 4z"/>
<path d="M4446 2473 c-12 -12 -6 -33 9 -33 8 0 15 6 15 14 0 17 -14 28 -24 19z"/>
<path d="M4513 2473 c-21 -7 -15 -33 7 -33 11 0 20 6 20 14 0 18 -11 25 -27
19z"/>
</g>
</svg>
