<svg style="" xmlns="http://www.w3.org/2000/svg" data-name="Layer 1" viewBox="-21 -19 105 105" x="0px" y="0px">

 <circle cx="32" cy="33" r="52" stroke="rgb(19, 132, 242)" stroke-width="1" fill="rgb(19, 132, 242)" />

<path stroke="#1E2635" stroke-width="1" fill="#1E2635" d="M4,50H26v7H15v4H49V57H38V50H60a1,1,0,0,0,1-1V11a1,1,0,0,0-1-1H38V7h9.18a3,3,0,1,0,0-2H37a1,1,0,0,0-1,1v4H28V6a1,1,0,0,0-1-1H16.82a3,3,0,1,0,0,2H26v3H4a1,1,0,0,0-1,1V49A1,1,0,0,0,4,50ZM28,12h8V23.17l-.67.67A6.77,6.77,0,0,0,34,23.29V21H30v2.29a6.77,6.77,0,0,0-1.33.55L28,23.17Zm4,14a4,4,0,1,1-4,4A4,4,0,0,1,32,26ZM5,12H26V23.27l-1.78,1.78,1.62,1.62A6.77,6.77,0,0,0,25.29,28H23v1H12.82a3,3,0,1,0,0,2H23v1h2.29a6.77,6.77,0,0,0,.55,1.33L24.22,35l2.83,2.83,1.62-1.62a6.77,6.77,0,0,0,1.33.55V39h4V36.71a6.77,6.77,0,0,0,1.33-.55L37,37.78,39.78,35l-1.62-1.62A6.77,6.77,0,0,0,38.71,32H41V31H51.18a3,3,0,1,0,0-2H41V28H38.71a6.77,6.77,0,0,0-.55-1.33l1.62-1.62L38,23.27V12H59V44H5Z"/><path stroke="#1E2635" fill="#1E2635" d="M8,17h5v8a1,1,0,0,0,1,1h6a1,1,0,0,0,0-2H15V16a1,1,0,0,0-1-1H8a1,1,0,0,0,0,2Z"/><path stroke="#1E2635" fill="#1E2635" d="M55,15H49a1,1,0,0,0-1,1v8H43a1,1,0,0,0,0,2h6a1,1,0,0,0,1-1V17h5a1,1,0,0,0,0-2Z"/></svg>