<?xml version="1.0" encoding="UTF-8"?>
<svg width="800px" height="800px" viewBox="0 0 511.801 511.801" xmlns="http://www.w3.org/2000/svg">
  <g fill="#1384F2">
    <path d="M356.447,55.974c-5.851-5.851-13.26-12.154-22.323-17.993l12.936-27.233c1.707-4.267,0-9.387-4.267-11.093
      s-9.387,0-11.093,4.267l-12.275,25.843c-16.838-8.078-37.902-13.896-63.671-13.896c-26.066,0-48.041,5.296-66.25,13.856
      L177.247,3.921c-1.707-4.267-6.827-5.973-11.093-4.267c-4.267,1.707-5.973,6.827-4.267,11.093l12.872,27.099
      c-36.675,23.424-54.21,60.82-56.392,88.101l-0.853,9.387h274.773l-0.853-9.387C389.727,108.027,379.487,79.867,356.447,55.974z"/>
    <path d="M58.634,152.401c-23.893,0-42.667,18.773-42.667,42.667v119.467c0,23.893,18.773,42.667,42.667,42.667
      c23.893,0,42.667-18.773,42.667-42.667V195.067C101.3,171.174,82.527,152.401,58.634,152.401z"/>
    <path d="M451.167,152.401c-23.893,0-42.667,18.773-42.667,42.667v119.467c0,23.893,18.773,42.667,42.667,42.667
      s42.667-18.773,42.667-42.667V195.067C493.834,171.174,475.06,152.401,451.167,152.401z"/>
    <path d="M118.367,399.867H152.5v76.8c0,18.773,15.36,34.133,34.133,34.133c18.773,0,34.133-15.36,34.133-34.133v-76.8h68.267
      v76.8c0,18.773,15.36,34.133,34.133,34.133s34.133-15.36,34.133-34.133v-76.8h34.133V152.401H118.367V399.867z"/>
  </g>
  <g fill="white">
    <circle cx="212.234" cy="84.134" r="17.067"/>
    <circle cx="297.567" cy="84.134" r="17.067"/>
  </g>
</svg>