<?xml version="1.0" encoding="UTF-8"?>
<svg version="1.1" xmlns="http://www.w3.org/2000/svg" width="1024" height="1024">
<path d="M0 0 C337.92 0 675.84 0 1024 0 C1024 337.92 1024 675.84 1024 1024 C686.08 1024 348.16 1024 0 1024 C0 686.08 0 348.16 0 0 Z " fill="transparent" transform="translate(0,0)"/>
<path d="M0 0 C33.90330581 -0.04583341 67.80660388 -0.08104758 101.70993382 -0.10213066 C105.71759265 -0.10463191 109.72525142 -0.10722057 113.73291016 -0.10986328 C114.53072257 -0.1103879 115.32853498 -0.11091252 116.15052353 -0.11145304 C129.04826193 -0.12014245 141.94598241 -0.13590432 154.8437102 -0.15430559 C168.08978204 -0.17304545 181.33584453 -0.18412535 194.58192909 -0.18817699 C202.74755737 -0.19091359 210.91313495 -0.19953946 219.07874762 -0.21583293 C224.68733223 -0.22645031 230.29589085 -0.22958993 235.90448476 -0.22700275 C239.13453347 -0.22572882 242.36447605 -0.22871753 245.59451294 -0.23841095 C261.27594723 -0.2831453 276.13630916 0.09952396 291.375 4.1875 C292.17462158 4.40180664 292.97424316 4.61611328 293.7980957 4.83691406 C322.68712865 12.93305767 348.88786196 31.20228479 367 55 C367.99773437 56.27423828 367.99773437 56.27423828 369.015625 57.57421875 C392.85216789 88.96525653 401.47193071 127.85079797 396.35058594 166.59521484 C392.17293231 195.25112587 378.50644249 219.02890995 359 240 C358.34773438 240.72960937 357.69546875 241.45921875 357.0234375 242.2109375 C340.82392426 259.53628564 318.5768942 269.87587971 296 276 C295.34 276 294.68 276 294 276 C300.25336806 287.43392354 306.7333494 298.7109392 313.390625 309.9140625 C317.03084896 316.04103212 320.63315221 322.18993218 324.23214722 328.34115601 C330.12490781 338.41199888 336.04372306 348.46655353 342 358.5 C349.30268159 370.80337228 356.54617719 383.14064337 363.77323914 395.48851013 C366.29966718 399.80487928 368.82875633 404.1196803 371.359375 408.43359375 C378.18781504 420.07447278 385.01048564 431.71865289 391.8125 443.375 C392.38121826 444.34928955 392.94993652 445.3235791 393.53588867 446.32739258 C394.56943344 448.09974383 395.60138907 449.87302326 396.63134766 451.64746094 C397.50499647 453.14915197 398.38431756 454.64756697 399.27099609 456.14160156 C402 460.78269967 402 460.78269967 402 463 C374.94 463 347.88 463 320 463 C316.04 456.07 312.08 449.14 308 442 C305.49195265 437.72041481 302.97757892 433.44773914 300.4375 429.1875 C299.43133755 427.49476072 298.4251778 425.80201983 297.41911316 424.10922241 C296.35908538 422.32621567 295.29825444 420.54368873 294.23730469 418.76123047 C291.84455783 414.74017862 289.45723942 410.71591475 287.0703125 406.69140625 C285.81075766 404.56814364 284.55115495 402.44490943 283.29153442 400.32168579 C282.48914037 398.96915381 281.68679055 397.61659559 280.88449097 396.26400757 C275.2849577 386.82538854 269.65471753 377.4056572 264 368 C263.40356689 367.00790527 262.80713379 366.01581055 262.19262695 364.99365234 C261.63663818 364.06891113 261.08064941 363.14416992 260.5078125 362.19140625 C252.55594361 348.96312889 244.65459616 335.70571858 236.78564453 322.42797852 C232.94157654 315.94296773 229.08902231 309.46317152 225.21484375 302.99609375 C224.85903229 302.4012619 224.50322083 301.80643005 224.1366272 301.193573 C220.97357351 295.92119994 217.71454097 290.71134856 214.43359375 285.51171875 C213 283 213 283 213 281 C200.46 281 187.92 281 175 281 C175 341.06 175 401.12 175 463 C150.25 463 125.5 463 100 463 C100 379.18 100 295.36 100 209 C182.125 208.75 182.125 208.75 208.00048828 208.70214844 C215.69360092 208.66890477 215.69360092 208.66890477 223.38668823 208.63043213 C226.79778453 208.61351292 230.20870526 208.60756456 233.61984253 208.60845947 C237.98601537 208.60923664 242.35172625 208.59072784 246.71777892 208.55891085 C248.31071211 208.55046628 249.90369783 208.54850293 251.4966433 208.55417585 C271.13237339 208.61519195 288.76149658 202.87180669 303.0859375 188.9765625 C315.62192802 175.67208214 321.39242412 159.37171969 321.14453125 141.23046875 C320.28254799 121.96397803 312.67151751 104.63667304 298.6640625 91.28515625 C286.09564943 80.50433272 271.03062915 74.62225124 254.53010559 74.78208923 C253.62010054 74.78264692 252.71009549 74.78320461 251.77251452 74.7837792 C248.74643465 74.78782368 245.72060664 74.80599134 242.69458008 74.82397461 C240.5158256 74.82941422 238.3370684 74.83384351 236.15830994 74.83734131 C231.47828676 74.84615428 226.79832277 74.860417 222.11832619 74.87843132 C214.71865185 74.9051798 207.31907379 74.90929214 199.9193573 74.90834045 C197.38360691 74.90826477 194.84785652 74.90819904 192.31210613 74.90814304 C191.04265475 74.90809336 189.77320336 74.90804367 188.46528375 74.90799248 C171.24566444 74.90892795 154.02635447 74.92788067 136.80688477 74.99633789 C125.17907548 75.04238705 113.55169945 75.0566688 101.923814 75.03448874 C95.77309437 75.02409272 89.62336992 75.03031384 83.47278786 75.07563591 C77.69308608 75.11806379 71.91488534 75.11894862 66.13512611 75.08778381 C64.01387139 75.08383075 61.8925237 75.09531224 59.77145004 75.12330818 C43.71231021 75.32278676 43.71231021 75.32278676 39.44215965 72.02402782 C37.85616799 69.69844567 36.88891363 67.65829328 36 65 C35.45472656 64.06148193 34.90945312 63.12296387 34.34765625 62.15600586 C33.92355469 61.35042236 33.49945313 60.54483887 33.0625 59.71484375 C32.3195166 58.31878906 32.3195166 58.31878906 31.56152344 56.89453125 C30.78856934 55.43080078 30.78856934 55.43080078 30 53.9375 C24.32920967 43.32827271 18.35317146 32.92812683 12.2578125 22.55859375 C9.33484475 17.58509649 6.45803425 12.5877357 3.625 7.5625 C3.06184082 6.56863281 3.06184082 6.56863281 2.48730469 5.5546875 C0 1.12319973 0 1.12319973 0 0 Z " fill="#1384F2" transform="translate(141,238)"/>
<path d="M0 0 C30.69 0 61.38 0 93 0 C88.65001511 10.87496223 83.56043903 21.11372769 78.14501953 31.47290039 C71.2670072 44.63876424 64.5236483 57.86538512 57.890625 71.15625 C57.49886959 71.94118395 57.10711418 72.7261179 56.7034874 73.53483772 C53.88277849 79.18845811 51.06600518 84.84403562 48.25 90.5 C45.02860026 96.97002755 41.80563163 103.43926627 38.578125 109.90625 C37.998349 111.06808304 37.998349 111.06808304 37.40686035 112.25338745 C32.86833673 121.34206763 28.27910565 130.39472613 23.49920654 139.35949707 C17.95011339 149.79524787 12.75860638 160.41596077 7.5 171 C1.33666448 183.40499482 -4.83803183 195.79229825 -11.33444214 208.02679443 C-16.27003368 217.34782682 -20.9372497 226.80264338 -25.625 236.25 C-27.40635217 239.83979224 -29.19064489 243.42810225 -30.9765625 247.015625 C-31.36325104 247.79730042 -31.74993958 248.57897583 -32.14834595 249.38433838 C-35.94703808 257.01409983 -39.98292922 264.46799229 -44 272 C-60.5 272 -77 272 -94 272 C-94.66 273.98 -95.32 275.96 -96 278 C-97.98 281.63 -99.96 285.26 -102 289 C-85.83 289 -69.66 289 -53 289 C-54.42290178 293.26870535 -55.79612089 296.83953044 -57.78515625 300.80078125 C-58.31560547 301.85974609 -58.84605469 302.91871094 -59.39257812 304.00976562 C-59.94365234 305.09966797 -60.49472656 306.18957031 -61.0625 307.3125 C-61.61744141 308.42173828 -62.17238281 309.53097656 -62.74414062 310.67382812 C-66.85956743 318.85956743 -66.85956743 318.85956743 -68 320 C-69.62579218 320.12281952 -71.25677004 320.17782504 -72.88696289 320.20532227 C-73.92796646 320.22526749 -74.96897003 320.24521271 -76.04151917 320.26576233 C-77.1737944 320.28247482 -78.30606964 320.29918732 -79.47265625 320.31640625 C-80.62543564 320.33718735 -81.77821503 320.35796844 -82.96592712 320.37937927 C-86.66472157 320.44499964 -90.36358959 320.50381755 -94.0625 320.5625 C-96.56315879 320.60567335 -99.06381001 320.64928724 -101.56445312 320.69335938 C-107.70955915 320.80069372 -113.8547395 320.90192559 -120 321 C-122.64 325.95 -125.28 330.9 -128 336 C-110.84 336.33 -93.68 336.66 -76 337 C-80.78615084 347.10409621 -85.64627042 357.18482911 -91 367 C-108.16 367.33 -125.32 367.66 -143 368 C-145.64 372.95 -148.28 377.9 -151 383 C-134.17 383.33 -117.34 383.66 -100 384 C-101.52303412 388.56910236 -103.18915507 392.65874808 -105.34375 396.91796875 C-105.83106094 397.89251511 -105.83106094 397.89251511 -106.32821655 398.88674927 C-107.38122435 400.98916563 -108.44032107 403.0884392 -109.5 405.1875 C-110.23725789 406.65448274 -110.97439903 408.12152416 -111.71142578 409.58862305 C-115.72755237 417.56913144 -119.79118356 425.52089289 -123.99023438 433.40698242 C-128.41297687 441.72685823 -132.69889018 450.11683808 -137 458.5 C-142.23061354 468.69336027 -147.48071701 478.87354999 -152.84521484 488.99731445 C-156.34191206 495.60988819 -159.69427025 502.29002537 -163 509 C-163.66 509 -164.32 509 -165 509 C-168.91720481 501.17180379 -172.83103848 493.34195741 -176.73382568 485.50656128 C-178.49676854 481.96786797 -180.26149973 478.43006775 -182.02636719 474.89233398 C-182.92259804 473.09484275 -183.81811062 471.2969932 -184.71289062 469.4987793 C-189.80902895 459.2589362 -194.97585028 449.0659548 -200.32714844 438.95689392 C-204.33684847 431.38126547 -208.25525742 423.76044176 -212.15811157 416.1293335 C-213.4249759 413.65228412 -214.69318206 411.17592536 -215.96166992 408.69970703 C-217.74724057 405.21379526 -219.53230459 401.72762488 -221.31689453 398.24121094 C-225.22481924 390.60688635 -229.13557221 382.97401202 -233.0479126 375.34194946 C-233.89073795 373.69777086 -234.73347075 372.0535448 -235.57611084 370.40927124 C-241.02394108 359.77965896 -246.49883314 349.1645918 -252 338.5625 C-257.01575971 328.89498448 -261.93295071 319.18373977 -266.77514648 309.42822266 C-270.3352303 302.27396976 -274.01104008 295.18786552 -277.79223633 288.14794922 C-280.09295413 283.83978548 -282.14183939 279.51776431 -284 275 C-283.57291748 274.61368408 -283.14583496 274.22736816 -282.70581055 273.8293457 C-260.83240466 253.94629939 -244.91361618 231.67867958 -232 205 C-229.75553987 207.07158692 -228.32925293 208.97585111 -226.98217773 211.7109375 C-226.6142662 212.45021484 -226.24635468 213.18949219 -225.86729431 213.95117188 C-225.47667313 214.75103516 -225.08605194 215.55089844 -224.68359375 216.375 C-224.05965477 217.63280273 -224.05965477 217.63280273 -223.42311096 218.91601562 C-222.08886139 221.60789562 -220.76273575 224.30367258 -219.4375 227 C-217.71031066 230.501628 -215.97947287 234.00143216 -214.24609375 237.5 C-213.8112265 238.37841553 -213.37635925 239.25683105 -212.92831421 240.16186523 C-210.04416746 245.96444695 -207.07324174 251.71419033 -204.03515625 257.4375 C-198.01057881 268.78856386 -192.31754371 280.30146373 -186.60449219 291.81152344 C-180.50866259 304.08434644 -174.29743355 316.28198837 -167.85693359 328.37792969 C-167.22315982 329.57758579 -166.60676914 330.78646171 -166 332 C-152.85697408 306.49720761 -139.88535403 280.91430095 -127.07160091 255.24459577 C-124.7693918 250.63374262 -122.46477594 246.02409258 -120.16046143 241.41429138 C-115.82349653 232.73729946 -111.48856214 224.05929492 -107.15443349 215.38088602 C-102.23821484 205.53718555 -97.31966836 195.69464886 -92.40093946 185.85220253 C-83.98798002 169.01766347 -75.576586 152.18234313 -67.16740417 135.34591675 C-66.81461191 134.63960896 -66.46181964 133.93330118 -66.0983367 133.20559013 C-65.41101273 131.82950192 -64.7237381 130.45338906 -64.03651667 129.07724965 C-62.28898204 125.57833708 -60.53980292 122.08025792 -58.78830719 118.58332634 C-58.24545133 117.49904804 -58.24545133 117.49904804 -57.69162869 116.39286512 C-57.00611289 115.02381682 -56.3202419 113.65494629 -55.63393855 112.28629261 C-53.18298021 107.39061846 -50.81215055 102.4624417 -48.5 97.5 C-45.88000074 91.87683954 -43.16725049 86.30526997 -40.38671875 80.75976562 C-39.66807648 79.32451076 -38.94944905 77.88924847 -38.23083496 76.45397949 C-37.86165451 75.71699326 -37.49247406 74.98000702 -37.11210632 74.22068787 C-35.33532468 70.67275601 -33.56131746 67.12343805 -31.78710938 63.57421875 C-31.04981903 62.09960221 -30.31251414 60.62499293 -29.57519531 59.15039062 C-29.02007263 58.04014526 -29.02007263 58.04014526 -28.45373535 56.9074707 C-18.9691569 37.9383138 -9.48457845 18.9691569 0 0 Z " fill="#1384F2" transform="translate(786,238)"/>
<path d="M0 0 C16.17 0 32.34 0 49 0 C49 16.5 49 33 49 50 C32.83 50 16.66 50 0 50 C0 33.5 0 17 0 0 Z " fill="transparent" transform="translate(316,374)"/>
<path d="M0 0 C15.84 0.33 31.68 0.66 48 1 C48 1.33 48 1.66 48 2 C31.83 2.33 15.66 2.66 -1 3 C-0.67 2.01 -0.34 1.02 0 0 Z " fill="transparent" transform="translate(685,524)"/>
<path d="M0 0 C0.66 0.33 1.32 0.66 2 1 C1.73445312 1.59167969 1.46890625 2.18335938 1.1953125 2.79296875 C0.84210937 3.58316406 0.48890625 4.37335937 0.125 5.1875 C-0.24238281 6.00605469 -0.60976563 6.82460938 -0.98828125 7.66796875 C-1.74729465 9.41750928 -2.42582335 11.20232476 -3.0625 13 C-3.5265625 13.99 -3.5265625 13.99 -4 15 C-4.99 15.33 -5.98 15.66 -7 16 C-5.35433477 10.31497465 -2.70967216 5.23318364 0 0 Z " fill="transparent" transform="translate(666,661)"/>
</svg>
