<?xml version="1.0" encoding="UTF-8"?>
<svg version="1.1" xmlns="http://www.w3.org/2000/svg" width="64" height="64">
<path d="M0 0 C0.92683594 0.08378906 1.85367188 0.16757812 2.80859375 0.25390625 C4.00613281 0.35574219 5.20367187 0.45757812 6.4375 0.5625 C8.22994141 0.71912109 8.22994141 0.71912109 10.05859375 0.87890625 C11.51458984 0.93884766 11.51458984 0.93884766 13 1 C13.33 0.67 13.66 0.34 14 0 C16.9375 -0.1875 16.9375 -0.1875 20 0 C22 2 22 2 22.25 5 C22 8 22 8 20 10 C17.0625 10.3125 17.0625 10.3125 14 10 C12.97803008 9.02246356 11.98020375 8.0194119 11 7 C8.69011685 6.25613932 6.35684056 5.57809297 4 5 C3.34 8.96 2.68 12.92 2 17 C3.19625 17.103125 4.3925 17.20625 5.625 17.3125 C8.62088276 17.66865389 10.15488634 18.08417736 12.875 19.5625 C16.72781958 21.33479701 19.56180383 21.119867 23.73046875 20.8125 C26 21 26 21 27.77734375 22.28125 C29.8033255 25.12927546 29.36083555 27.63220153 29 31 C27.625 32.9375 27.625 32.9375 26 34 C25.34 34 24.68 34 24 34 C24.0825 35.03125 24.165 36.0625 24.25 37.125 C23.95042911 41.76834872 22.99036619 43.47290142 20 47 C11.37091853 54.56350482 2.03391825 54.75570501 -8.93017578 54.19970703 C-15.85387564 53.53167371 -21.14740564 49.7342384 -26 45 C-28.54047914 41.53571026 -28.16114341 38.18972863 -28 34 C-28.639375 33.87625 -29.27875 33.7525 -29.9375 33.625 C-30.618125 33.41875 -31.29875 33.2125 -32 33 C-33.52491998 29.95016004 -33.23562548 27.3576631 -33 24 C-31.7734375 22.2734375 -31.7734375 22.2734375 -30 21 C-27.8359375 20.84765625 -27.8359375 20.84765625 -25.375 21.0625 C-20.45658783 21.24174243 -17.38867515 20.07883436 -13.05078125 17.890625 C-10.30858668 16.69972907 -7.9454103 16.69790664 -5 17 C-4.83564453 16.1646875 -4.83564453 16.1646875 -4.66796875 15.3125 C-3.55724752 9.96658969 -2.02774474 5.06936184 0 0 Z M-17 30 C-16.71016731 33.30683466 -16.71016731 33.30683466 -15 36 C-12.5 36.16666667 -12.5 36.16666667 -10 36 C-8.65595225 34.88163776 -8.65595225 34.88163776 -8.875 32 C-8.65595225 29.11836224 -8.65595225 29.11836224 -10 28 C-13.961168 27.60909667 -13.961168 27.60909667 -17 30 Z M5 29 C4.83333333 32 4.83333333 32 5 35 C6.05310277 36.27003323 6.05310277 36.27003323 8.4375 36.1875 C11.16734675 36.26839983 11.16734675 36.26839983 13 34 C12.71016731 30.69316534 12.71016731 30.69316534 11 28 C7.71105107 27.59371033 7.71105107 27.59371033 5 29 Z M-12 42 C-12.33 42.99 -12.66 43.98 -13 45 C-9.36211946 47.29186474 -6.2381715 47.26795835 -2 47.25 C-0.783125 47.25515625 0.43375 47.2603125 1.6875 47.265625 C4.75288791 47.01981559 6.43662952 46.6149234 9 45 C9 44.34 9 43.68 9 43 C8.01 43.165 7.02 43.33 6 43.5 C-0.35914095 44.38642571 -5.91825622 44.43269751 -12 42 Z " fill="#0984f2" transform="translate(34,2)"/>
</svg>
